<svg width="25" height="16" viewBox="0 0 25 16" fill="none" xmlns="http://www.w3.org/2000/svg">
<path d="M5.88 0.527999H6.92L1.64 15.6H0.6L5.88 0.527999ZM11.3429 14.096C10.4789 14.096 9.70554 13.8667 9.02288 13.408C8.35088 12.9493 7.82288 12.2933 7.43888 11.44C7.06554 10.576 6.87888 9.56267 6.87888 8.4C6.87888 7.23733 7.06554 6.22933 7.43888 5.376C7.82288 4.512 8.35088 3.85067 9.02288 3.392C9.70554 2.93333 10.4789 2.704 11.3429 2.704C12.2069 2.704 12.9749 2.93333 13.6469 3.392C14.3295 3.85067 14.8629 4.512 15.2469 5.376C15.6309 6.22933 15.8229 7.23733 15.8229 8.4C15.8229 9.56267 15.6309 10.576 15.2469 11.44C14.8629 12.2933 14.3295 12.9493 13.6469 13.408C12.9749 13.8667 12.2069 14.096 11.3429 14.096ZM11.3429 13.04C11.9935 13.04 12.5642 12.8587 13.0549 12.496C13.5562 12.1333 13.9455 11.6053 14.2229 10.912C14.5002 10.2187 14.6389 9.38133 14.6389 8.4C14.6389 7.41867 14.5002 6.58133 14.2229 5.888C13.9455 5.19467 13.5562 4.66667 13.0549 4.304C12.5642 3.94133 11.9935 3.76 11.3429 3.76C10.6922 3.76 10.1162 3.94133 9.61488 4.304C9.12421 4.66667 8.74021 5.19467 8.46288 5.888C8.18554 6.58133 8.04688 7.41867 8.04688 8.4C8.04688 9.38133 8.18554 10.2187 8.46288 10.912C8.74021 11.6053 9.12421 12.1333 9.61488 12.496C10.1162 12.8587 10.6922 13.04 11.3429 13.04ZM21.1244 7.6C22.2977 7.664 23.1884 7.984 23.7964 8.56C24.415 9.12533 24.7244 9.86667 24.7244 10.784C24.7244 11.424 24.5697 11.9947 24.2604 12.496C23.951 12.9867 23.4924 13.376 22.8844 13.664C22.2764 13.952 21.535 14.096 20.6604 14.096C19.8497 14.096 19.0817 13.968 18.3564 13.712C17.6417 13.4453 17.0657 13.0933 16.6284 12.656L17.1884 11.744C17.5617 12.128 18.0577 12.4427 18.6764 12.688C19.295 12.9227 19.9564 13.04 20.6604 13.04C21.5777 13.04 22.287 12.8427 22.7884 12.448C23.2897 12.0427 23.5404 11.488 23.5404 10.784C23.5404 10.0907 23.2897 9.54667 22.7884 9.152C22.287 8.75733 21.5297 8.56 20.5164 8.56H19.7164V7.712L22.8204 3.824H17.0924V2.8H24.2924V3.616L21.1244 7.6Z" fill="#969696" fill-opacity="0.5"/>
</svg>
