<svg width="26" height="16" viewBox="0 0 26 16" fill="none" xmlns="http://www.w3.org/2000/svg">
<path d="M5.88 0.527999H6.92L1.64 15.6H0.6L5.88 0.527999ZM11.3429 14.096C10.4789 14.096 9.70554 13.8667 9.02288 13.408C8.35088 12.9493 7.82288 12.2933 7.43888 11.44C7.06554 10.576 6.87888 9.56267 6.87888 8.4C6.87888 7.23733 7.06554 6.22933 7.43888 5.376C7.82288 4.512 8.35088 3.85067 9.02288 3.392C9.70554 2.93333 10.4789 2.704 11.3429 2.704C12.2069 2.704 12.9749 2.93333 13.6469 3.392C14.3295 3.85067 14.8629 4.512 15.2469 5.376C15.6309 6.22933 15.8229 7.23733 15.8229 8.4C15.8229 9.56267 15.6309 10.576 15.2469 11.44C14.8629 12.2933 14.3295 12.9493 13.6469 13.408C12.9749 13.8667 12.2069 14.096 11.3429 14.096ZM11.3429 13.04C11.9935 13.04 12.5642 12.8587 13.0549 12.496C13.5562 12.1333 13.9455 11.6053 14.2229 10.912C14.5002 10.2187 14.6389 9.38133 14.6389 8.4C14.6389 7.41867 14.5002 6.58133 14.2229 5.888C13.9455 5.19467 13.5562 4.66667 13.0549 4.304C12.5642 3.94133 11.9935 3.76 11.3429 3.76C10.6922 3.76 10.1162 3.94133 9.61488 4.304C9.12421 4.66667 8.74021 5.19467 8.46288 5.888C8.18554 6.58133 8.04688 7.41867 8.04688 8.4C8.04688 9.38133 8.18554 10.2187 8.46288 10.912C8.74021 11.6053 9.12421 12.1333 9.61488 12.496C10.1162 12.8587 10.6922 13.04 11.3429 13.04ZM20.4166 7.392C22.038 7.392 23.2166 7.68533 23.9526 8.272C24.6993 8.848 25.0726 9.65867 25.0726 10.704C25.0726 11.3547 24.918 11.936 24.6086 12.448C24.31 12.96 23.8566 13.3653 23.2486 13.664C22.6406 13.952 21.894 14.096 21.0086 14.096C20.2086 14.096 19.446 13.968 18.7206 13.712C18.006 13.4453 17.43 13.0933 16.9926 12.656L17.5526 11.744C17.926 12.128 18.4166 12.4427 19.0246 12.688C19.6326 12.9227 20.2886 13.04 20.9926 13.04C21.9206 13.04 22.6353 12.832 23.1366 12.416C23.6486 12 23.9046 11.4453 23.9046 10.752C23.9046 9.984 23.6166 9.40267 23.0406 9.008C22.4753 8.61333 21.5153 8.416 20.1606 8.416H17.7766L18.3526 2.8H24.4806V3.824H19.3606L18.9766 7.392H20.4166Z" fill="#969696" fill-opacity="0.5"/>
</svg>
