<svg width="26" height="16" viewBox="0 0 26 16" fill="none" xmlns="http://www.w3.org/2000/svg">
<path d="M5.88 0.527999H6.92L1.64 15.6H0.6L5.88 0.527999ZM11.3429 14.096C10.4789 14.096 9.70554 13.8667 9.02288 13.408C8.35088 12.9493 7.82288 12.2933 7.43888 11.44C7.06554 10.576 6.87888 9.56267 6.87888 8.4C6.87888 7.23733 7.06554 6.22933 7.43888 5.376C7.82288 4.512 8.35088 3.85067 9.02288 3.392C9.70554 2.93333 10.4789 2.704 11.3429 2.704C12.2069 2.704 12.9749 2.93333 13.6469 3.392C14.3295 3.85067 14.8629 4.512 15.2469 5.376C15.6309 6.22933 15.8229 7.23733 15.8229 8.4C15.8229 9.56267 15.6309 10.576 15.2469 11.44C14.8629 12.2933 14.3295 12.9493 13.6469 13.408C12.9749 13.8667 12.2069 14.096 11.3429 14.096ZM11.3429 13.04C11.9935 13.04 12.5642 12.8587 13.0549 12.496C13.5562 12.1333 13.9455 11.6053 14.2229 10.912C14.5002 10.2187 14.6389 9.38133 14.6389 8.4C14.6389 7.41867 14.5002 6.58133 14.2229 5.888C13.9455 5.19467 13.5562 4.66667 13.0549 4.304C12.5642 3.94133 11.9935 3.76 11.3429 3.76C10.6922 3.76 10.1162 3.94133 9.61488 4.304C9.12421 4.66667 8.74021 5.19467 8.46288 5.888C8.18554 6.58133 8.04688 7.41867 8.04688 8.4C8.04688 9.38133 8.18554 10.2187 8.46288 10.912C8.74021 11.6053 9.12421 12.1333 9.61488 12.496C10.1162 12.8587 10.6922 13.04 11.3429 13.04ZM22.1126 7.296C22.8486 7.296 23.4993 7.43467 24.0646 7.712C24.6406 7.98933 25.0886 8.384 25.4086 8.896C25.7286 9.39733 25.8886 9.984 25.8886 10.656C25.8886 11.3387 25.7233 11.9413 25.3926 12.464C25.062 12.9867 24.6033 13.392 24.0166 13.68C23.4406 13.9573 22.79 14.096 22.0646 14.096C20.582 14.096 19.446 13.6107 18.6566 12.64C17.8673 11.6587 17.4726 10.2773 17.4726 8.496C17.4726 7.248 17.686 6.192 18.1126 5.328C18.5393 4.464 19.1366 3.81333 19.9046 3.376C20.6726 2.928 21.5686 2.704 22.5926 2.704C23.702 2.704 24.5873 2.90667 25.2486 3.312L24.7846 4.24C24.2513 3.888 23.526 3.712 22.6086 3.712C21.3713 3.712 20.4006 4.10667 19.6966 4.896C18.9926 5.67467 18.6406 6.81067 18.6406 8.304C18.6406 8.57067 18.6566 8.87467 18.6886 9.216C18.966 8.608 19.4086 8.13867 20.0166 7.808C20.6246 7.46667 21.3233 7.296 22.1126 7.296ZM22.0166 13.12C22.8273 13.12 23.4833 12.9013 23.9846 12.464C24.4966 12.016 24.7526 11.424 24.7526 10.688C24.7526 9.952 24.4966 9.36533 23.9846 8.928C23.4833 8.49067 22.8006 8.272 21.9366 8.272C21.3713 8.272 20.87 8.37867 20.4326 8.592C20.006 8.80533 19.67 9.09867 19.4246 9.472C19.1793 9.84533 19.0566 10.2613 19.0566 10.72C19.0566 11.1467 19.1686 11.5413 19.3926 11.904C19.6273 12.2667 19.9686 12.56 20.4166 12.784C20.8646 13.008 21.398 13.12 22.0166 13.12Z" fill="#969696" fill-opacity="0.5"/>
</svg>
