<svg width="27" height="16" viewBox="0 0 27 16" fill="none" xmlns="http://www.w3.org/2000/svg">
<path d="M5.88 0.527999H6.92L1.64 15.6H0.6L5.88 0.527999ZM11.3429 14.096C10.4789 14.096 9.70554 13.8667 9.02288 13.408C8.35088 12.9493 7.82288 12.2933 7.43888 11.44C7.06554 10.576 6.87888 9.56267 6.87888 8.4C6.87888 7.23733 7.06554 6.22933 7.43888 5.376C7.82288 4.512 8.35088 3.85067 9.02288 3.392C9.70554 2.93333 10.4789 2.704 11.3429 2.704C12.2069 2.704 12.9749 2.93333 13.6469 3.392C14.3295 3.85067 14.8629 4.512 15.2469 5.376C15.6309 6.22933 15.8229 7.23733 15.8229 8.4C15.8229 9.56267 15.6309 10.576 15.2469 11.44C14.8629 12.2933 14.3295 12.9493 13.6469 13.408C12.9749 13.8667 12.2069 14.096 11.3429 14.096ZM11.3429 13.04C11.9935 13.04 12.5642 12.8587 13.0549 12.496C13.5562 12.1333 13.9455 11.6053 14.2229 10.912C14.5002 10.2187 14.6389 9.38133 14.6389 8.4C14.6389 7.41867 14.5002 6.58133 14.2229 5.888C13.9455 5.19467 13.5562 4.66667 13.0549 4.304C12.5642 3.94133 11.9935 3.76 11.3429 3.76C10.6922 3.76 10.1162 3.94133 9.61488 4.304C9.12421 4.66667 8.74021 5.19467 8.46288 5.888C8.18554 6.58133 8.04688 7.41867 8.04688 8.4C8.04688 9.38133 8.18554 10.2187 8.46288 10.912C8.74021 11.6053 9.12421 12.1333 9.61488 12.496C10.1162 12.8587 10.6922 13.04 11.3429 13.04ZM23.8886 8.128C24.5926 8.36267 25.1313 8.71467 25.5046 9.184C25.8886 9.65333 26.0806 10.2187 26.0806 10.88C26.0806 11.5307 25.9046 12.1013 25.5526 12.592C25.2006 13.072 24.694 13.4453 24.0326 13.712C23.382 13.968 22.614 14.096 21.7286 14.096C20.3846 14.096 19.3286 13.808 18.5606 13.232C17.7926 12.656 17.4086 11.872 17.4086 10.88C17.4086 10.208 17.59 9.64267 17.9526 9.184C18.326 8.71467 18.8646 8.36267 19.5686 8.128C18.9926 7.904 18.5553 7.584 18.2566 7.168C17.958 6.74133 17.8086 6.24 17.8086 5.664C17.8086 4.75733 18.1606 4.03733 18.8646 3.504C19.5793 2.97067 20.534 2.704 21.7286 2.704C22.518 2.704 23.206 2.82667 23.7926 3.072C24.39 3.30667 24.854 3.648 25.1846 4.096C25.5153 4.544 25.6806 5.06667 25.6806 5.664C25.6806 6.24 25.526 6.74133 25.2166 7.168C24.9073 7.584 24.4646 7.904 23.8886 8.128ZM18.9606 5.696C18.9606 6.31467 19.206 6.80533 19.6966 7.168C20.1873 7.53067 20.8646 7.712 21.7286 7.712C22.5926 7.712 23.27 7.53067 23.7606 7.168C24.262 6.80533 24.5126 6.32 24.5126 5.712C24.5126 5.08267 24.2566 4.58667 23.7446 4.224C23.2433 3.86133 22.5713 3.68 21.7286 3.68C20.8753 3.68 20.198 3.86133 19.6966 4.224C19.206 4.58667 18.9606 5.07733 18.9606 5.696ZM21.7286 13.12C22.7206 13.12 23.494 12.9173 24.0486 12.512C24.614 12.1067 24.8966 11.5573 24.8966 10.864C24.8966 10.1707 24.614 9.62667 24.0486 9.232C23.494 8.82667 22.7206 8.624 21.7286 8.624C20.7473 8.624 19.974 8.82667 19.4086 9.232C18.854 9.62667 18.5766 10.1707 18.5766 10.864C18.5766 11.568 18.854 12.1227 19.4086 12.528C19.9633 12.9227 20.7366 13.12 21.7286 13.12Z" fill="#969696" fill-opacity="0.5"/>
</svg>
