<svg width="26" height="16" viewBox="0 0 26 16" fill="none" xmlns="http://www.w3.org/2000/svg">
<path d="M5.88 0.527999H6.92L1.64 15.6H0.6L5.88 0.527999ZM11.3429 14.096C10.4789 14.096 9.70554 13.8667 9.02288 13.408C8.35088 12.9493 7.82288 12.2933 7.43888 11.44C7.06554 10.576 6.87888 9.56267 6.87888 8.4C6.87888 7.23733 7.06554 6.22933 7.43888 5.376C7.82288 4.512 8.35088 3.85067 9.02288 3.392C9.70554 2.93333 10.4789 2.704 11.3429 2.704C12.2069 2.704 12.9749 2.93333 13.6469 3.392C14.3295 3.85067 14.8629 4.512 15.2469 5.376C15.6309 6.22933 15.8229 7.23733 15.8229 8.4C15.8229 9.56267 15.6309 10.576 15.2469 11.44C14.8629 12.2933 14.3295 12.9493 13.6469 13.408C12.9749 13.8667 12.2069 14.096 11.3429 14.096ZM11.3429 13.04C11.9935 13.04 12.5642 12.8587 13.0549 12.496C13.5562 12.1333 13.9455 11.6053 14.2229 10.912C14.5002 10.2187 14.6389 9.38133 14.6389 8.4C14.6389 7.41867 14.5002 6.58133 14.2229 5.888C13.9455 5.19467 13.5562 4.66667 13.0549 4.304C12.5642 3.94133 11.9935 3.76 11.3429 3.76C10.6922 3.76 10.1162 3.94133 9.61488 4.304C9.12421 4.66667 8.74021 5.19467 8.46288 5.888C8.18554 6.58133 8.04688 7.41867 8.04688 8.4C8.04688 9.38133 8.18554 10.2187 8.46288 10.912C8.74021 11.6053 9.12421 12.1333 9.61488 12.496C10.1162 12.8587 10.6922 13.04 11.3429 13.04ZM20.9606 2.704C22.4433 2.704 23.5793 3.19467 24.3686 4.176C25.158 5.14667 25.5526 6.52267 25.5526 8.304C25.5526 9.552 25.3393 10.608 24.9126 11.472C24.486 12.336 23.8886 12.992 23.1206 13.44C22.3526 13.8773 21.4566 14.096 20.4326 14.096C19.3233 14.096 18.438 13.8933 17.7766 13.488L18.2406 12.56C18.774 12.912 19.4993 13.088 20.4166 13.088C21.654 13.088 22.6246 12.6987 23.3286 11.92C24.0326 11.1307 24.3846 9.98933 24.3846 8.496C24.3846 8.21867 24.3686 7.91467 24.3366 7.584C24.0593 8.192 23.6166 8.66667 23.0086 9.008C22.4006 9.33867 21.702 9.504 20.9126 9.504C20.1766 9.504 19.5206 9.36533 18.9446 9.088C18.3793 8.81067 17.9366 8.42133 17.6166 7.92C17.2966 7.408 17.1366 6.816 17.1366 6.144C17.1366 5.46133 17.302 4.85867 17.6326 4.336C17.9633 3.81333 18.4166 3.41333 18.9926 3.136C19.5793 2.848 20.2353 2.704 20.9606 2.704ZM21.0886 8.528C21.654 8.528 22.15 8.42133 22.5766 8.208C23.014 7.99467 23.3553 7.70133 23.6006 7.328C23.846 6.95467 23.9686 6.53867 23.9686 6.08C23.9686 5.65333 23.8513 5.25867 23.6166 4.896C23.3926 4.53333 23.0566 4.24 22.6086 4.016C22.1606 3.792 21.6273 3.68 21.0086 3.68C20.198 3.68 19.5366 3.904 19.0246 4.352C18.5233 4.78933 18.2726 5.376 18.2726 6.112C18.2726 6.848 18.5233 7.43467 19.0246 7.872C19.5366 8.30933 20.2246 8.528 21.0886 8.528Z" fill="#969696" fill-opacity="0.5"/>
</svg>
