<svg width="844" height="140" viewBox="0 0 844 140" fill="none" xmlns="http://www.w3.org/2000/svg">
<path d="M41.1438 36.6H0.14375V-9.53674e-06H129.344V36.6H88.3438V140H41.1438V36.6ZM201.603 104.8H188.803V140H141.603V-9.53674e-06H209.003C221.936 -9.53674e-06 233.203 2.13332 242.803 6.39999C252.403 10.6667 259.803 16.8 265.003 24.8C270.203 32.8 272.803 42.1333 272.803 52.8C272.803 62.8 270.536 71.5333 266.003 79C261.47 86.4667 254.936 92.4 246.403 96.8L275.803 140H225.403L201.603 104.8ZM225.203 52.8C225.203 47.6 223.603 43.6 220.403 40.8C217.203 37.8667 212.403 36.4 206.003 36.4H188.803V69.2H206.003C212.403 69.2 217.203 67.8 220.403 65C223.603 62.0667 225.203 58 225.203 52.8ZM386.027 115.6H332.827L323.427 140H275.427L336.627 -9.53674e-06H383.027L444.227 140H395.427L386.027 115.6ZM373.027 81.6L359.427 46.4L345.827 81.6H373.027ZM593.352 -9.53674e-06L534.152 140H487.752L428.552 -9.53674e-06H479.352L512.752 81.8L546.952 -9.53674e-06H593.352ZM714.448 104.4V140H598.048V-9.53674e-06H711.848V35.6H644.448V52H703.648V86H644.448V104.4H714.448ZM732.619 -9.53674e-06H779.819V103.4H843.019V140H732.619V-9.53674e-06Z" fill="white" fill-opacity="0.2"/>
</svg>
