<svg width="25" height="32" viewBox="0 0 25 32" fill="none" xmlns="http://www.w3.org/2000/svg">
<path d="M24.39 8.325C23.2359 4.6875 20.1967 1.72494 16.4652 0.6C15.1572 0.206188 13.8107 0 12.5027 0C9.82908 0 7.25166 0.80625 5.09734 2.38131C1.9042 4.66875 0 8.325 0 12.1875C0 14.8499 0.865575 17.3813 2.50055 19.5001L12.5027 32L22.5049 19.5001C24.9477 16.3125 25.6402 12.2438 24.39 8.325ZM12.5027 18.75C8.79039 18.75 5.7705 15.8062 5.7705 12.1875C5.7705 8.56875 8.79039 5.625 12.5027 5.625C16.2151 5.625 19.235 8.56875 19.235 12.1875C19.235 15.8062 16.2151 18.75 12.5027 18.75Z" fill="#DD4053"/>
</svg>
