<svg width="202" height="24" viewBox="0 0 202 24" fill="none" xmlns="http://www.w3.org/2000/svg">
<path d="M16.4727 9.41016C16.4727 12.1992 15.7734 14.3672 14.375 15.9141C12.9844 17.4609 11.0117 18.2344 8.45703 18.2344C5.87109 18.2344 3.88281 17.4688 2.49219 15.9375C1.10938 14.3984 0.417969 12.2148 0.417969 9.38672C0.417969 6.55859 1.11328 4.38672 2.50391 2.87109C3.90234 1.35547 5.89453 0.597656 8.48047 0.597656C11.0273 0.597656 12.9961 1.36719 14.3867 2.90625C15.7773 4.44531 16.4727 6.61328 16.4727 9.41016ZM3.39453 9.41016C3.39453 11.5195 3.82031 13.1211 4.67188 14.2148C5.52344 15.3008 6.78516 15.8438 8.45703 15.8438C10.1211 15.8438 11.375 15.3047 12.2188 14.2266C13.0703 13.1484 13.4961 11.543 13.4961 9.41016C13.4961 7.30859 13.0742 5.71484 12.2305 4.62891C11.3945 3.54297 10.1445 3 8.48047 3C6.80078 3 5.53125 3.54297 4.67188 4.62891C3.82031 5.71484 3.39453 7.30859 3.39453 9.41016ZM29.5977 5.03906V7.19531H25.3789V18H22.6133V7.19531H18.3945V5.03906H29.5977ZM48.3828 4.80469C48.3828 5.89062 48.0664 6.79688 47.4336 7.52344C46.8008 8.24219 45.9102 8.72656 44.7617 8.97656V9.07031C46.1367 9.24219 47.168 9.67188 47.8555 10.3594C48.543 11.0391 48.8867 11.9453 48.8867 13.0781C48.8867 14.7266 48.3047 16 47.1406 16.8984C45.9766 17.7891 44.3203 18.2344 42.1719 18.2344C40.2734 18.2344 38.6719 17.9258 37.3672 17.3086V14.8594C38.0938 15.2188 38.8633 15.4961 39.6758 15.6914C40.4883 15.8867 41.2695 15.9844 42.0195 15.9844C43.3477 15.9844 44.3398 15.7383 44.9961 15.2461C45.6523 14.7539 45.9805 13.9922 45.9805 12.9609C45.9805 12.0469 45.6172 11.375 44.8906 10.9453C44.1641 10.5156 43.0234 10.3008 41.4688 10.3008H39.9805V8.0625H41.4922C44.2266 8.0625 45.5938 7.11719 45.5938 5.22656C45.5938 4.49219 45.3555 3.92578 44.8789 3.52734C44.4023 3.12891 43.6992 2.92969 42.7695 2.92969C42.1211 2.92969 41.4961 3.02344 40.8945 3.21094C40.293 3.39062 39.582 3.74609 38.7617 4.27734L37.4141 2.35547C38.9844 1.19922 40.8086 0.621094 42.8867 0.621094C44.6133 0.621094 45.9609 0.992188 46.9297 1.73438C47.8984 2.47656 48.3828 3.5 48.3828 4.80469ZM62.7383 9.43359C62.7383 12.4102 62.2578 14.6211 61.2969 16.0664C60.3438 17.5117 58.8828 18.2344 56.9141 18.2344C55.0078 18.2344 53.5625 17.4883 52.5781 15.9961C51.5938 14.5039 51.1016 12.3164 51.1016 9.43359C51.1016 6.41016 51.5781 4.18359 52.5312 2.75391C53.4922 1.31641 54.9531 0.597656 56.9141 0.597656C58.8281 0.597656 60.2773 1.34766 61.2617 2.84766C62.2461 4.34766 62.7383 6.54297 62.7383 9.43359ZM53.8906 9.43359C53.8906 11.7695 54.1289 13.4375 54.6055 14.4375C55.0898 15.4375 55.8594 15.9375 56.9141 15.9375C57.9688 15.9375 58.7383 15.4297 59.2227 14.4141C59.7148 13.3984 59.9609 11.7383 59.9609 9.43359C59.9609 7.13672 59.7148 5.47656 59.2227 4.45312C58.7383 3.42188 57.9688 2.90625 56.9141 2.90625C55.8594 2.90625 55.0898 3.41016 54.6055 4.41797C54.1289 5.42578 53.8906 7.09766 53.8906 9.43359ZM76.4492 9.43359C76.4492 12.4102 75.9688 14.6211 75.0078 16.0664C74.0547 17.5117 72.5938 18.2344 70.625 18.2344C68.7188 18.2344 67.2734 17.4883 66.2891 15.9961C65.3047 14.5039 64.8125 12.3164 64.8125 9.43359C64.8125 6.41016 65.2891 4.18359 66.2422 2.75391C67.2031 1.31641 68.6641 0.597656 70.625 0.597656C72.5391 0.597656 73.9883 1.34766 74.9727 2.84766C75.957 4.34766 76.4492 6.54297 76.4492 9.43359ZM67.6016 9.43359C67.6016 11.7695 67.8398 13.4375 68.3164 14.4375C68.8008 15.4375 69.5703 15.9375 70.625 15.9375C71.6797 15.9375 72.4492 15.4297 72.9336 14.4141C73.4258 13.3984 73.6719 11.7383 73.6719 9.43359C73.6719 7.13672 73.4258 5.47656 72.9336 4.45312C72.4492 3.42188 71.6797 2.90625 70.625 2.90625C69.5703 2.90625 68.8008 3.41016 68.3164 4.41797C67.8398 5.42578 67.6016 7.09766 67.6016 9.43359ZM93.0898 3.02344C91.9883 3.02344 91.0859 3.35156 90.3828 4.00781C89.6875 4.66406 89.2227 5.65625 88.9883 6.98438H94.332V8.78906H88.8125L88.7891 9.31641V9.96094L88.8125 10.418H93.5938V12.2109H89.0117C89.5117 14.6484 90.9336 15.8672 93.2773 15.8672C94.3945 15.8672 95.5391 15.625 96.7109 15.1406V17.5195C95.6875 17.9961 94.4961 18.2344 93.1367 18.2344C91.2539 18.2344 89.7227 17.7188 88.543 16.6875C87.3711 15.6562 86.6055 14.1641 86.2461 12.2109H84.4648V10.418H86.0586L86.0352 9.98438V9.55078L86.0586 8.78906H84.4648V6.98438H86.2227C86.5195 5.02344 87.2656 3.48438 88.4609 2.36719C89.6562 1.25 91.1992 0.691406 93.0898 0.691406C94.6523 0.691406 96.0508 1.03516 97.2852 1.72266L96.3008 3.91406C95.0977 3.32031 94.0273 3.02344 93.0898 3.02344ZM108.711 10.2188C109.969 10.2188 110.895 10.082 111.488 9.80859C112.082 9.52734 112.379 9.09766 112.379 8.51953C112.379 7.46484 111.441 6.9375 109.566 6.9375C108.316 6.9375 107.039 7.21875 105.734 7.78125L104.844 5.73047C106.352 5.11328 108.016 4.80469 109.836 4.80469C111.445 4.80469 112.695 5.10156 113.586 5.69531C114.477 6.28125 114.922 7.125 114.922 8.22656C114.922 9.67969 114.09 10.6328 112.426 11.0859V11.1797C113.465 11.4609 114.207 11.8633 114.652 12.3867C115.105 12.9102 115.332 13.5586 115.332 14.332C115.332 15.5195 114.809 16.4688 113.762 17.1797C112.723 17.8828 111.27 18.2344 109.402 18.2344C107.363 18.2344 105.805 17.9648 104.727 17.4258V15.0469C106.156 15.7188 107.637 16.0547 109.168 16.0547C110.27 16.0547 111.117 15.9023 111.711 15.5977C112.312 15.2852 112.613 14.8125 112.613 14.1797C112.613 13.5312 112.312 13.0547 111.711 12.75C111.109 12.4453 110.18 12.293 108.922 12.293H107.34V10.2188H108.711ZM126.43 18L125.879 16.1953H125.785C125.16 16.9844 124.531 17.5234 123.898 17.8125C123.266 18.0938 122.453 18.2344 121.461 18.2344C120.188 18.2344 119.191 17.8906 118.473 17.2031C117.762 16.5156 117.406 15.543 117.406 14.2852C117.406 12.9492 117.902 11.9414 118.895 11.2617C119.887 10.582 121.398 10.2109 123.43 10.1484L125.668 10.0781V9.38672C125.668 8.55859 125.473 7.94141 125.082 7.53516C124.699 7.12109 124.102 6.91406 123.289 6.91406C122.625 6.91406 121.988 7.01172 121.379 7.20703C120.77 7.40234 120.184 7.63281 119.621 7.89844L118.73 5.92969C119.434 5.5625 120.203 5.28516 121.039 5.09766C121.875 4.90234 122.664 4.80469 123.406 4.80469C125.055 4.80469 126.297 5.16406 127.133 5.88281C127.977 6.60156 128.398 7.73047 128.398 9.26953V18H126.43ZM122.328 16.125C123.328 16.125 124.129 15.8477 124.73 15.293C125.34 14.7305 125.645 13.9453 125.645 12.9375V11.8125L123.98 11.8828C122.684 11.9297 121.738 12.1484 121.145 12.5391C120.559 12.9219 120.266 13.5117 120.266 14.3086C120.266 14.8867 120.438 15.3359 120.781 15.6562C121.125 15.9688 121.641 16.125 122.328 16.125ZM143.703 18.2344C141.742 18.2344 140.25 17.6641 139.227 16.5234C138.211 15.375 137.703 13.7305 137.703 11.5898C137.703 9.41016 138.234 7.73438 139.297 6.5625C140.367 5.39062 141.91 4.80469 143.926 4.80469C145.293 4.80469 146.523 5.05859 147.617 5.56641L146.785 7.78125C145.621 7.32812 144.66 7.10156 143.902 7.10156C141.66 7.10156 140.539 8.58984 140.539 11.5664C140.539 13.0195 140.816 14.1133 141.371 14.8477C141.934 15.5742 142.754 15.9375 143.832 15.9375C145.059 15.9375 146.219 15.6328 147.312 15.0234V17.4258C146.82 17.7148 146.293 17.9219 145.73 18.0469C145.176 18.1719 144.5 18.2344 143.703 18.2344ZM148.391 5.03906H151.391L154.027 12.3867C154.426 13.4336 154.691 14.418 154.824 15.3398H154.918C154.988 14.9102 155.117 14.3906 155.305 13.7812C155.492 13.1641 156.484 10.25 158.281 5.03906H161.258L155.715 19.7227C154.707 22.418 153.027 23.7656 150.676 23.7656C150.066 23.7656 149.473 23.6992 148.895 23.5664V21.3867C149.309 21.4805 149.781 21.5273 150.312 21.5273C151.641 21.5273 152.574 20.7578 153.113 19.2188L153.594 18L148.391 5.03906ZM172.965 5.03906V7.19531H168.746V18H165.98V7.19531H161.762V5.03906H172.965ZM183.5 5.03906H186.523L181.168 11.2852L186.98 18H183.816L178.215 11.4258V18H175.461V5.03906H178.215V11.332L183.5 5.03906ZM191.762 5.03906V11.6836C191.762 12.457 191.699 13.5938 191.574 15.0938L198.078 5.03906H201.441V18H198.793V11.4727C198.793 11.1133 198.812 10.5312 198.852 9.72656C198.898 8.92188 198.938 8.33594 198.969 7.96875L192.488 18H189.125V5.03906H191.762Z" fill="white"/>
</svg>
