<svg width="141" height="13" viewBox="0 0 141 13" fill="none" xmlns="http://www.w3.org/2000/svg">
<path d="M10.312 0.799999V12H9.144V1.824H2.056V12H0.888V0.799999H10.312ZM13.8191 3.584H14.9551V7.312H20.2511V3.584H21.3871V12H20.2511V8.288H14.9551V12H13.8191V3.584ZM23.96 7.168H28.152V8.16H23.96V7.168ZM40.4214 0.799999V12H39.2534V1.824H32.1654V12H30.9974V0.799999H40.4214ZM49.8485 4.592H46.6645V12H45.5285V4.592H42.3445V3.584H49.8485V4.592ZM57.9985 0.799999V12H56.8465V1.824H54.2065V0.799999H57.9985ZM65.1398 12.096C64.2758 12.096 63.5024 11.8667 62.8198 11.408C62.1478 10.9493 61.6198 10.2933 61.2358 9.44C60.8624 8.576 60.6758 7.56267 60.6758 6.4C60.6758 5.23733 60.8624 4.22933 61.2358 3.376C61.6198 2.512 62.1478 1.85067 62.8198 1.392C63.5024 0.933333 64.2758 0.704 65.1398 0.704C66.0038 0.704 66.7718 0.933333 67.4438 1.392C68.1264 1.85067 68.6598 2.512 69.0438 3.376C69.4278 4.22933 69.6198 5.23733 69.6198 6.4C69.6198 7.56267 69.4278 8.576 69.0438 9.44C68.6598 10.2933 68.1264 10.9493 67.4438 11.408C66.7718 11.8667 66.0038 12.096 65.1398 12.096ZM65.1398 11.04C65.7904 11.04 66.3611 10.8587 66.8518 10.496C67.3531 10.1333 67.7424 9.60533 68.0198 8.912C68.2971 8.21867 68.4358 7.38133 68.4358 6.4C68.4358 5.41867 68.2971 4.58133 68.0198 3.888C67.7424 3.19467 67.3531 2.66667 66.8518 2.304C66.3611 1.94133 65.7904 1.76 65.1398 1.76C64.4891 1.76 63.9131 1.94133 63.4118 2.304C62.9211 2.66667 62.5371 3.19467 62.2598 3.888C61.9824 4.58133 61.8438 5.41867 61.8438 6.4C61.8438 7.38133 61.9824 8.21867 62.2598 8.912C62.5371 9.60533 62.9211 10.1333 63.4118 10.496C63.9131 10.8587 64.4891 11.04 65.1398 11.04ZM72.1335 5.264C71.8988 5.264 71.6962 5.17867 71.5255 5.008C71.3655 4.83733 71.2855 4.62933 71.2855 4.384C71.2855 4.13867 71.3655 3.936 71.5255 3.776C71.6962 3.60533 71.8988 3.52 72.1335 3.52C72.3682 3.52 72.5708 3.60533 72.7415 3.776C72.9122 3.936 72.9975 4.13867 72.9975 4.384C72.9975 4.62933 72.9122 4.83733 72.7415 5.008C72.5708 5.17867 72.3682 5.264 72.1335 5.264ZM72.1335 12.08C71.8988 12.08 71.6962 11.9947 71.5255 11.824C71.3655 11.6533 71.2855 11.4453 71.2855 11.2C71.2855 10.9547 71.3655 10.752 71.5255 10.592C71.6962 10.4213 71.8988 10.336 72.1335 10.336C72.3682 10.336 72.5708 10.4213 72.7415 10.592C72.9122 10.752 72.9975 10.9547 72.9975 11.2C72.9975 11.4453 72.9122 11.6533 72.7415 11.824C72.5708 11.9947 72.3682 12.08 72.1335 12.08ZM79.1241 12.096C78.2601 12.096 77.4868 11.8667 76.8041 11.408C76.1321 10.9493 75.6041 10.2933 75.2201 9.44C74.8468 8.576 74.6601 7.56267 74.6601 6.4C74.6601 5.23733 74.8468 4.22933 75.2201 3.376C75.6041 2.512 76.1321 1.85067 76.8041 1.392C77.4868 0.933333 78.2601 0.704 79.1241 0.704C79.9881 0.704 80.7561 0.933333 81.4281 1.392C82.1108 1.85067 82.6441 2.512 83.0281 3.376C83.4121 4.22933 83.6041 5.23733 83.6041 6.4C83.6041 7.56267 83.4121 8.576 83.0281 9.44C82.6441 10.2933 82.1108 10.9493 81.4281 11.408C80.7561 11.8667 79.9881 12.096 79.1241 12.096ZM79.1241 11.04C79.7748 11.04 80.3455 10.8587 80.8361 10.496C81.3375 10.1333 81.7268 9.60533 82.0041 8.912C82.2815 8.21867 82.4201 7.38133 82.4201 6.4C82.4201 5.41867 82.2815 4.58133 82.0041 3.888C81.7268 3.19467 81.3375 2.66667 80.8361 2.304C80.3455 1.94133 79.7748 1.76 79.1241 1.76C78.4735 1.76 77.8975 1.94133 77.3961 2.304C76.9055 2.66667 76.5215 3.19467 76.2441 3.888C75.9668 4.58133 75.8281 5.41867 75.8281 6.4C75.8281 7.38133 75.9668 8.21867 76.2441 8.912C76.5215 9.60533 76.9055 10.1333 77.3961 10.496C77.8975 10.8587 78.4735 11.04 79.1241 11.04ZM89.7179 12.096C88.8539 12.096 88.0805 11.8667 87.3979 11.408C86.7259 10.9493 86.1979 10.2933 85.8139 9.44C85.4405 8.576 85.2539 7.56267 85.2539 6.4C85.2539 5.23733 85.4405 4.22933 85.8139 3.376C86.1979 2.512 86.7259 1.85067 87.3979 1.392C88.0805 0.933333 88.8539 0.704 89.7179 0.704C90.5819 0.704 91.3499 0.933333 92.0219 1.392C92.7045 1.85067 93.2379 2.512 93.6219 3.376C94.0059 4.22933 94.1979 5.23733 94.1979 6.4C94.1979 7.56267 94.0059 8.576 93.6219 9.44C93.2379 10.2933 92.7045 10.9493 92.0219 11.408C91.3499 11.8667 90.5819 12.096 89.7179 12.096ZM89.7179 11.04C90.3685 11.04 90.9392 10.8587 91.4299 10.496C91.9312 10.1333 92.3205 9.60533 92.5979 8.912C92.8752 8.21867 93.0139 7.38133 93.0139 6.4C93.0139 5.41867 92.8752 4.58133 92.5979 3.888C92.3205 3.19467 91.9312 2.66667 91.4299 2.304C90.9392 1.94133 90.3685 1.76 89.7179 1.76C89.0672 1.76 88.4912 1.94133 87.9899 2.304C87.4992 2.66667 87.1152 3.19467 86.8379 3.888C86.5605 4.58133 86.4219 5.41867 86.4219 6.4C86.4219 7.38133 86.5605 8.21867 86.8379 8.912C87.1152 9.60533 87.4992 10.1333 87.9899 10.496C88.4912 10.8587 89.0672 11.04 89.7179 11.04ZM96.1006 7.168H100.293V8.16H96.1006V7.168ZM104.92 0.799999V12H103.768V1.824H101.128V0.799999H104.92ZM111.086 0.704C112.568 0.704 113.704 1.19467 114.494 2.176C115.283 3.14667 115.678 4.52267 115.678 6.304C115.678 7.552 115.464 8.608 115.038 9.472C114.611 10.336 114.014 10.992 113.246 11.44C112.478 11.8773 111.582 12.096 110.558 12.096C109.448 12.096 108.563 11.8933 107.902 11.488L108.366 10.56C108.899 10.912 109.624 11.088 110.542 11.088C111.779 11.088 112.75 10.6987 113.454 9.92C114.158 9.13067 114.51 7.98933 114.51 6.496C114.51 6.21867 114.494 5.91467 114.462 5.584C114.184 6.192 113.742 6.66667 113.134 7.008C112.526 7.33867 111.827 7.504 111.038 7.504C110.302 7.504 109.646 7.36533 109.07 7.088C108.504 6.81067 108.062 6.42133 107.742 5.92C107.422 5.408 107.262 4.816 107.262 4.144C107.262 3.46133 107.427 2.85867 107.758 2.336C108.088 1.81333 108.542 1.41333 109.118 1.136C109.704 0.848 110.36 0.704 111.086 0.704ZM111.214 6.528C111.779 6.528 112.275 6.42133 112.702 6.208C113.139 5.99467 113.48 5.70133 113.726 5.328C113.971 4.95467 114.094 4.53867 114.094 4.08C114.094 3.65333 113.976 3.25867 113.742 2.896C113.518 2.53333 113.182 2.24 112.734 2.016C112.286 1.792 111.752 1.68 111.134 1.68C110.323 1.68 109.662 1.904 109.15 2.352C108.648 2.78933 108.398 3.376 108.398 4.112C108.398 4.848 108.648 5.43467 109.15 5.872C109.662 6.30933 110.35 6.528 111.214 6.528ZM118.212 5.264C117.977 5.264 117.774 5.17867 117.604 5.008C117.444 4.83733 117.364 4.62933 117.364 4.384C117.364 4.13867 117.444 3.936 117.604 3.776C117.774 3.60533 117.977 3.52 118.212 3.52C118.446 3.52 118.649 3.60533 118.82 3.776C118.99 3.936 119.076 4.13867 119.076 4.384C119.076 4.62933 118.99 4.83733 118.82 5.008C118.649 5.17867 118.446 5.264 118.212 5.264ZM118.212 12.08C117.977 12.08 117.774 11.9947 117.604 11.824C117.444 11.6533 117.364 11.4453 117.364 11.2C117.364 10.9547 117.444 10.752 117.604 10.592C117.774 10.4213 117.977 10.336 118.212 10.336C118.446 10.336 118.649 10.4213 118.82 10.592C118.99 10.752 119.076 10.9547 119.076 11.2C119.076 11.4453 118.99 11.6533 118.82 11.824C118.649 11.9947 118.446 12.08 118.212 12.08ZM125.202 12.096C124.338 12.096 123.565 11.8667 122.882 11.408C122.21 10.9493 121.682 10.2933 121.298 9.44C120.925 8.576 120.738 7.56267 120.738 6.4C120.738 5.23733 120.925 4.22933 121.298 3.376C121.682 2.512 122.21 1.85067 122.882 1.392C123.565 0.933333 124.338 0.704 125.202 0.704C126.066 0.704 126.834 0.933333 127.506 1.392C128.189 1.85067 128.722 2.512 129.106 3.376C129.49 4.22933 129.682 5.23733 129.682 6.4C129.682 7.56267 129.49 8.576 129.106 9.44C128.722 10.2933 128.189 10.9493 127.506 11.408C126.834 11.8667 126.066 12.096 125.202 12.096ZM125.202 11.04C125.853 11.04 126.424 10.8587 126.914 10.496C127.416 10.1333 127.805 9.60533 128.082 8.912C128.36 8.21867 128.498 7.38133 128.498 6.4C128.498 5.41867 128.36 4.58133 128.082 3.888C127.805 3.19467 127.416 2.66667 126.914 2.304C126.424 1.94133 125.853 1.76 125.202 1.76C124.552 1.76 123.976 1.94133 123.474 2.304C122.984 2.66667 122.6 3.19467 122.322 3.888C122.045 4.58133 121.906 5.41867 121.906 6.4C121.906 7.38133 122.045 8.21867 122.322 8.912C122.6 9.60533 122.984 10.1333 123.474 10.496C123.976 10.8587 124.552 11.04 125.202 11.04ZM135.796 12.096C134.932 12.096 134.159 11.8667 133.476 11.408C132.804 10.9493 132.276 10.2933 131.892 9.44C131.519 8.576 131.332 7.56267 131.332 6.4C131.332 5.23733 131.519 4.22933 131.892 3.376C132.276 2.512 132.804 1.85067 133.476 1.392C134.159 0.933333 134.932 0.704 135.796 0.704C136.66 0.704 137.428 0.933333 138.1 1.392C138.783 1.85067 139.316 2.512 139.7 3.376C140.084 4.22933 140.276 5.23733 140.276 6.4C140.276 7.56267 140.084 8.576 139.7 9.44C139.316 10.2933 138.783 10.9493 138.1 11.408C137.428 11.8667 136.66 12.096 135.796 12.096ZM135.796 11.04C136.447 11.04 137.017 10.8587 137.508 10.496C138.009 10.1333 138.399 9.60533 138.676 8.912C138.953 8.21867 139.092 7.38133 139.092 6.4C139.092 5.41867 138.953 4.58133 138.676 3.888C138.399 3.19467 138.009 2.66667 137.508 2.304C137.017 1.94133 136.447 1.76 135.796 1.76C135.145 1.76 134.569 1.94133 134.068 2.304C133.577 2.66667 133.193 3.19467 132.916 3.888C132.639 4.58133 132.5 5.41867 132.5 6.4C132.5 7.38133 132.639 8.21867 132.916 8.912C133.193 9.60533 133.577 10.1333 134.068 10.496C134.569 10.8587 135.145 11.04 135.796 11.04Z" fill="#323232"/>
</svg>
