<svg width="98" height="17" viewBox="0 0 98 17" fill="none" xmlns="http://www.w3.org/2000/svg">
<path d="M10.8188 1.8V13H8.24275V3.912H3.18675V13H0.61075V1.8H10.8188ZM17.4351 13.128C16.5285 13.128 15.7125 12.9413 14.9871 12.568C14.2725 12.184 13.7125 11.656 13.3071 10.984C12.9018 10.312 12.6991 9.54933 12.6991 8.696C12.6991 7.84267 12.9018 7.08 13.3071 6.408C13.7125 5.736 14.2725 5.21333 14.9871 4.84C15.7125 4.456 16.5285 4.264 17.4351 4.264C18.3418 4.264 19.1525 4.456 19.8671 4.84C20.5818 5.21333 21.1418 5.736 21.5471 6.408C21.9525 7.08 22.1551 7.84267 22.1551 8.696C22.1551 9.54933 21.9525 10.312 21.5471 10.984C21.1418 11.656 20.5818 12.184 19.8671 12.568C19.1525 12.9413 18.3418 13.128 17.4351 13.128ZM17.4351 11.08C18.0751 11.08 18.5978 10.8667 19.0031 10.44C19.4191 10.0027 19.6271 9.42133 19.6271 8.696C19.6271 7.97067 19.4191 7.39467 19.0031 6.968C18.5978 6.53067 18.0751 6.312 17.4351 6.312C16.7951 6.312 16.2671 6.53067 15.8511 6.968C15.4351 7.39467 15.2271 7.97067 15.2271 8.696C15.2271 9.42133 15.4351 10.0027 15.8511 10.44C16.2671 10.8667 16.7951 11.08 17.4351 11.08ZM33.3949 10.952V14.856H31.0749V13H25.0269V14.856H22.7069V10.952H23.0589C23.5922 10.9413 23.9602 10.6267 24.1629 10.008C24.3655 9.38933 24.4935 8.50933 24.5469 7.368L24.6589 4.392H32.1629V10.952H33.3949ZM26.8029 7.544C26.7709 8.41867 26.7015 9.13333 26.5949 9.688C26.4989 10.2427 26.3122 10.664 26.0349 10.952H29.6669V6.44H26.8509L26.8029 7.544ZM40.0376 4.264C40.8376 4.264 41.563 4.45067 42.2136 4.824C42.875 5.18667 43.3923 5.704 43.7656 6.376C44.139 7.03733 44.3256 7.81067 44.3256 8.696C44.3256 9.58133 44.139 10.36 43.7656 11.032C43.3923 11.6933 42.875 12.2107 42.2136 12.584C41.563 12.9467 40.8376 13.128 40.0376 13.128C38.939 13.128 38.075 12.7813 37.4456 12.088V16.104H34.9496V4.392H37.3336V5.384C37.9523 4.63733 38.8536 4.264 40.0376 4.264ZM39.6056 11.08C40.2456 11.08 40.7683 10.8667 41.1736 10.44C41.5896 10.0027 41.7976 9.42133 41.7976 8.696C41.7976 7.97067 41.5896 7.39467 41.1736 6.968C40.7683 6.53067 40.2456 6.312 39.6056 6.312C38.9656 6.312 38.4376 6.53067 38.0216 6.968C37.6163 7.39467 37.4136 7.97067 37.4136 8.696C37.4136 9.42133 37.6163 10.0027 38.0216 10.44C38.4376 10.8667 38.9656 11.08 39.6056 11.08ZM50.107 13.128C49.2003 13.128 48.3843 12.9413 47.659 12.568C46.9443 12.184 46.3843 11.656 45.979 10.984C45.5737 10.312 45.371 9.54933 45.371 8.696C45.371 7.84267 45.5737 7.08 45.979 6.408C46.3843 5.736 46.9443 5.21333 47.659 4.84C48.3843 4.456 49.2003 4.264 50.107 4.264C51.0137 4.264 51.8243 4.456 52.539 4.84C53.2537 5.21333 53.8137 5.736 54.219 6.408C54.6243 7.08 54.827 7.84267 54.827 8.696C54.827 9.54933 54.6243 10.312 54.219 10.984C53.8137 11.656 53.2537 12.184 52.539 12.568C51.8243 12.9413 51.0137 13.128 50.107 13.128ZM50.107 11.08C50.747 11.08 51.2697 10.8667 51.675 10.44C52.091 10.0027 52.299 9.42133 52.299 8.696C52.299 7.97067 52.091 7.39467 51.675 6.968C51.2697 6.53067 50.747 6.312 50.107 6.312C49.467 6.312 48.939 6.53067 48.523 6.968C48.107 7.39467 47.899 7.97067 47.899 8.696C47.899 9.42133 48.107 10.0027 48.523 10.44C48.939 10.8667 49.467 11.08 50.107 11.08ZM61.5198 4.984C62.3411 4.984 63.0611 5.15467 63.6798 5.496C64.2984 5.82667 64.7731 6.296 65.1038 6.904C65.4451 7.512 65.6158 8.216 65.6158 9.016C65.6158 9.83733 65.4131 10.568 65.0078 11.208C64.6131 11.8373 64.0584 12.328 63.3438 12.68C62.6291 13.0213 61.8184 13.192 60.9118 13.192C59.4078 13.192 58.2238 12.712 57.3598 11.752C56.5064 10.7813 56.0798 9.36267 56.0798 7.496C56.0798 5.768 56.4531 4.392 57.1998 3.368C57.9571 2.33333 59.1144 1.656 60.6718 1.336L64.7678 0.52L65.1038 2.664L61.4878 3.384C60.5064 3.576 59.7758 3.896 59.2958 4.344C58.8264 4.792 58.5491 5.42667 58.4638 6.248C58.8371 5.84267 59.2851 5.53333 59.8078 5.32C60.3304 5.096 60.9011 4.984 61.5198 4.984ZM60.9278 11.256C61.5678 11.256 62.0798 11.048 62.4638 10.632C62.8584 10.216 63.0558 9.688 63.0558 9.048C63.0558 8.39733 62.8584 7.88 62.4638 7.496C62.0798 7.112 61.5678 6.92 60.9278 6.92C60.2771 6.92 59.7544 7.112 59.3598 7.496C58.9651 7.88 58.7678 8.39733 58.7678 9.048C58.7678 9.69867 58.9704 10.232 59.3758 10.648C59.7811 11.0533 60.2984 11.256 60.9278 11.256ZM67.3094 4.392H69.7894V7.752H73.5334V4.392H76.0294V13H73.5334V9.784H69.7894V13H67.3094V4.392ZM86.7868 8.728C86.7868 8.76 86.7708 8.984 86.7388 9.4H80.2268C80.3441 9.93333 80.6214 10.3547 81.0588 10.664C81.4961 10.9733 82.0401 11.128 82.6908 11.128C83.1388 11.128 83.5334 11.064 83.8748 10.936C84.2268 10.7973 84.5521 10.584 84.8508 10.296L86.1788 11.736C85.3681 12.664 84.1841 13.128 82.6268 13.128C81.6561 13.128 80.7974 12.9413 80.0508 12.568C79.3041 12.184 78.7281 11.656 78.3228 10.984C77.9174 10.312 77.7148 9.54933 77.7148 8.696C77.7148 7.85333 77.9121 7.096 78.3068 6.424C78.7121 5.74133 79.2614 5.21333 79.9548 4.84C80.6588 4.456 81.4428 4.264 82.3068 4.264C83.1494 4.264 83.9121 4.44533 84.5948 4.808C85.2774 5.17067 85.8108 5.69333 86.1948 6.376C86.5894 7.048 86.7868 7.832 86.7868 8.728ZM82.3228 6.152C81.7574 6.152 81.2828 6.312 80.8988 6.632C80.5148 6.952 80.2801 7.38933 80.1948 7.944H84.4348C84.3494 7.4 84.1148 6.968 83.7308 6.648C83.3468 6.31733 82.8774 6.152 82.3228 6.152ZM97.068 8.728C97.068 8.76 97.052 8.984 97.02 9.4H90.508C90.6253 9.93333 90.9027 10.3547 91.34 10.664C91.7773 10.9733 92.3213 11.128 92.972 11.128C93.42 11.128 93.8147 11.064 94.156 10.936C94.508 10.7973 94.8333 10.584 95.132 10.296L96.46 11.736C95.6493 12.664 94.4653 13.128 92.908 13.128C91.9373 13.128 91.0787 12.9413 90.332 12.568C89.5853 12.184 89.0093 11.656 88.604 10.984C88.1987 10.312 87.996 9.54933 87.996 8.696C87.996 7.85333 88.1933 7.096 88.588 6.424C88.9933 5.74133 89.5427 5.21333 90.236 4.84C90.94 4.456 91.724 4.264 92.588 4.264C93.4307 4.264 94.1933 4.44533 94.876 4.808C95.5587 5.17067 96.092 5.69333 96.476 6.376C96.8707 7.048 97.068 7.832 97.068 8.728ZM92.604 6.152C92.0387 6.152 91.564 6.312 91.18 6.632C90.796 6.952 90.5613 7.38933 90.476 7.944H94.716C94.6307 7.4 94.396 6.968 94.012 6.648C93.628 6.31733 93.1587 6.152 92.604 6.152Z" fill="white"/>
</svg>
