<svg width="93" height="13" viewBox="0 0 93 13" fill="none" xmlns="http://www.w3.org/2000/svg">
<path d="M3.56 1.6C4.632 1.6 5.472 1.856 6.08 2.368C6.688 2.88 6.992 3.584 6.992 4.48C6.992 5.376 6.688 6.08 6.08 6.592C5.472 7.096 4.632 7.348 3.56 7.348H1.304V10H0.416V1.6H3.56ZM3.536 6.568C4.368 6.568 5.004 6.388 5.444 6.028C5.884 5.66 6.104 5.144 6.104 4.48C6.104 3.8 5.884 3.28 5.444 2.92C5.004 2.552 4.368 2.368 3.536 2.368H1.304V6.568H3.536ZM14.0992 7.108H8.81919C8.86719 7.764 9.11919 8.296 9.57519 8.704C10.0312 9.104 10.6072 9.304 11.3032 9.304C11.6952 9.304 12.0552 9.236 12.3832 9.1C12.7112 8.956 12.9952 8.748 13.2352 8.476L13.7152 9.028C13.4352 9.364 13.0832 9.62 12.6592 9.796C12.2432 9.972 11.7832 10.06 11.2792 10.06C10.6312 10.06 10.0552 9.924 9.55119 9.652C9.05519 9.372 8.66719 8.988 8.38719 8.5C8.10719 8.012 7.96719 7.46 7.96719 6.844C7.96719 6.228 8.09919 5.676 8.36319 5.188C8.63519 4.7 9.00319 4.32 9.46719 4.048C9.93919 3.776 10.4672 3.64 11.0512 3.64C11.6352 3.64 12.1592 3.776 12.6232 4.048C13.0872 4.32 13.4512 4.7 13.7152 5.188C13.9792 5.668 14.1112 6.22 14.1112 6.844L14.0992 7.108ZM11.0512 4.372C10.4432 4.372 9.93119 4.568 9.51519 4.96C9.10719 5.344 8.87519 5.848 8.81919 6.472H13.2952C13.2392 5.848 13.0032 5.344 12.5872 4.96C12.1792 4.568 11.6672 4.372 11.0512 4.372ZM21.3534 7.192H19.9854V10H19.1334V7.192H17.7654L15.8334 10H14.8134L17.0814 6.748L14.9934 3.688H15.9174L17.7654 6.46H19.1334V3.688H19.9854V6.46H21.3534L23.2134 3.688H24.1374L22.0494 6.76L24.3174 10H23.2974L21.3534 7.192ZM25.7354 3.688H26.5874V8.704L30.7994 3.688H31.5554V10H30.7034V4.984L26.5034 10H25.7354V3.688ZM41.0532 3.688V10H40.2732V5.008L37.7172 9.232H37.3332L34.7772 4.996V10H33.9972V3.688H34.8612L37.5372 8.236L40.2612 3.688H41.0532ZM49.8703 3.64C50.4623 3.64 50.9983 3.776 51.4783 4.048C51.9583 4.312 52.3343 4.688 52.6063 5.176C52.8783 5.664 53.0143 6.22 53.0143 6.844C53.0143 7.476 52.8783 8.036 52.6063 8.524C52.3343 9.012 51.9583 9.392 51.4783 9.664C51.0063 9.928 50.4703 10.06 49.8703 10.06C49.3583 10.06 48.8943 9.956 48.4783 9.748C48.0703 9.532 47.7343 9.22 47.4703 8.812V12.328H46.6183V3.688H47.4343V4.936C47.6903 4.52 48.0263 4.2 48.4423 3.976C48.8663 3.752 49.3423 3.64 49.8703 3.64ZM49.8103 9.304C50.2503 9.304 50.6503 9.204 51.0103 9.004C51.3703 8.796 51.6503 8.504 51.8503 8.128C52.0583 7.752 52.1623 7.324 52.1623 6.844C52.1623 6.364 52.0583 5.94 51.8503 5.572C51.6503 5.196 51.3703 4.904 51.0103 4.696C50.6503 4.488 50.2503 4.384 49.8103 4.384C49.3623 4.384 48.9583 4.488 48.5983 4.696C48.2463 4.904 47.9663 5.196 47.7583 5.572C47.5583 5.94 47.4583 6.364 47.4583 6.844C47.4583 7.324 47.5583 7.752 47.7583 8.128C47.9663 8.504 48.2463 8.796 48.5983 9.004C48.9583 9.204 49.3623 9.304 49.8103 9.304ZM56.9817 3.64C57.8057 3.64 58.4377 3.848 58.8777 4.264C59.3177 4.672 59.5377 5.28 59.5377 6.088V10H58.7217V9.016C58.5297 9.344 58.2457 9.6 57.8697 9.784C57.5017 9.968 57.0617 10.06 56.5497 10.06C55.8457 10.06 55.2857 9.892 54.8697 9.556C54.4537 9.22 54.2457 8.776 54.2457 8.224C54.2457 7.688 54.4377 7.256 54.8217 6.928C55.2137 6.6 55.8337 6.436 56.6817 6.436H58.6857V6.052C58.6857 5.508 58.5337 5.096 58.2297 4.816C57.9257 4.528 57.4817 4.384 56.8977 4.384C56.4977 4.384 56.1137 4.452 55.7457 4.588C55.3777 4.716 55.0617 4.896 54.7977 5.128L54.4137 4.492C54.7337 4.22 55.1177 4.012 55.5657 3.868C56.0137 3.716 56.4857 3.64 56.9817 3.64ZM56.6817 9.388C57.1617 9.388 57.5737 9.28 57.9177 9.064C58.2617 8.84 58.5177 8.52 58.6857 8.104V7.072H56.7057C55.6257 7.072 55.0857 7.448 55.0857 8.2C55.0857 8.568 55.2257 8.86 55.5057 9.076C55.7857 9.284 56.1777 9.388 56.6817 9.388ZM64.8658 3.844C65.4498 3.844 65.9698 3.976 66.4258 4.24C66.8898 4.496 67.2498 4.86 67.5058 5.332C67.7618 5.796 67.8898 6.328 67.8898 6.928C67.8898 7.544 67.7538 8.092 67.4818 8.572C67.2178 9.044 66.8458 9.412 66.3658 9.676C65.8858 9.94 65.3338 10.072 64.7098 10.072C63.6618 10.072 62.8498 9.704 62.2738 8.968C61.6978 8.232 61.4098 7.216 61.4098 5.92C61.4098 4.568 61.6658 3.532 62.1777 2.812C62.6978 2.092 63.5058 1.604 64.6018 1.348L67.4338 0.7L67.5778 1.48L64.9138 2.092C64.0098 2.292 63.3458 2.648 62.9218 3.16C62.4978 3.664 62.2658 4.412 62.2258 5.404C62.4818 4.916 62.8378 4.536 63.2938 4.264C63.7498 3.984 64.2738 3.844 64.8658 3.844ZM64.7338 9.364C65.1738 9.364 65.5658 9.264 65.9098 9.064C66.2618 8.856 66.5338 8.568 66.7258 8.2C66.9258 7.832 67.0258 7.416 67.0258 6.952C67.0258 6.488 66.9298 6.08 66.7378 5.728C66.5458 5.376 66.2738 5.104 65.9218 4.912C65.5778 4.712 65.1818 4.612 64.7338 4.612C64.2858 4.612 63.8858 4.712 63.5338 4.912C63.1898 5.104 62.9178 5.376 62.7178 5.728C62.5258 6.08 62.4298 6.488 62.4298 6.952C62.4298 7.416 62.5258 7.832 62.7178 8.2C62.9178 8.568 63.1938 8.856 63.5458 9.064C63.8978 9.264 64.2938 9.364 64.7338 9.364ZM72.3199 10.06C71.7119 10.06 71.1639 9.924 70.6759 9.652C70.1879 9.372 69.8039 8.988 69.5239 8.5C69.2439 8.012 69.1039 7.46 69.1039 6.844C69.1039 6.228 69.2439 5.676 69.5239 5.188C69.8039 4.7 70.1879 4.32 70.6759 4.048C71.1639 3.776 71.7119 3.64 72.3199 3.64C72.9279 3.64 73.4759 3.776 73.9639 4.048C74.4519 4.32 74.8319 4.7 75.1039 5.188C75.3839 5.676 75.5239 6.228 75.5239 6.844C75.5239 7.46 75.3839 8.012 75.1039 8.5C74.8319 8.988 74.4519 9.372 73.9639 9.652C73.4759 9.924 72.9279 10.06 72.3199 10.06ZM72.3199 9.304C72.7679 9.304 73.1679 9.204 73.5199 9.004C73.8799 8.796 74.1599 8.504 74.3599 8.128C74.5599 7.752 74.6599 7.324 74.6599 6.844C74.6599 6.364 74.5599 5.936 74.3599 5.56C74.1599 5.184 73.8799 4.896 73.5199 4.696C73.1679 4.488 72.7679 4.384 72.3199 4.384C71.8719 4.384 71.4679 4.488 71.1079 4.696C70.7559 4.896 70.4759 5.184 70.2679 5.56C70.0679 5.936 69.9679 6.364 69.9679 6.844C69.9679 7.324 70.0679 7.752 70.2679 8.128C70.4759 8.504 70.7559 8.796 71.1079 9.004C71.4679 9.204 71.8719 9.304 72.3199 9.304ZM81.5504 4.444H79.1624V10H78.3104V4.444H75.9224V3.688H81.5504V4.444ZM85.4343 5.92C86.2263 5.928 86.8303 6.104 87.2463 6.448C87.6623 6.792 87.8703 7.288 87.8703 7.936C87.8703 8.608 87.6463 9.124 87.1983 9.484C86.7503 9.844 86.1103 10.02 85.2783 10.012L82.7823 10V3.688H83.6343V5.896L85.4343 5.92ZM88.9263 3.688H89.7783V10H88.9263V3.688ZM85.2303 9.364C85.8143 9.372 86.2543 9.256 86.5503 9.016C86.8543 8.768 87.0063 8.408 87.0063 7.936C87.0063 7.472 86.8583 7.128 86.5623 6.904C86.2663 6.68 85.8223 6.564 85.2303 6.556L83.6343 6.532V9.34L85.2303 9.364ZM92.2642 4.948C92.0882 4.948 91.9362 4.884 91.8082 4.756C91.6882 4.628 91.6282 4.472 91.6282 4.288C91.6282 4.104 91.6882 3.952 91.8082 3.832C91.9362 3.704 92.0882 3.64 92.2642 3.64C92.4402 3.64 92.5922 3.704 92.7202 3.832C92.8482 3.952 92.9122 4.104 92.9122 4.288C92.9122 4.472 92.8482 4.628 92.7202 4.756C92.5922 4.884 92.4402 4.948 92.2642 4.948ZM92.2642 10.06C92.0882 10.06 91.9362 9.996 91.8082 9.868C91.6882 9.74 91.6282 9.584 91.6282 9.4C91.6282 9.216 91.6882 9.064 91.8082 8.944C91.9362 8.816 92.0882 8.752 92.2642 8.752C92.4402 8.752 92.5922 8.816 92.7202 8.944C92.8482 9.064 92.9122 9.216 92.9122 9.4C92.9122 9.584 92.8482 9.74 92.7202 9.868C92.5922 9.996 92.4402 10.06 92.2642 10.06Z" fill="#848484"/>
</svg>
