<svg width="205" height="44" viewBox="0 0 205 44" fill="none" xmlns="http://www.w3.org/2000/svg">
<path d="M7.44 15.16C6.04 15.16 4.77333 14.8533 3.64 14.24C2.52 13.6133 1.64 12.76 1 11.68C0.36 10.5867 0.04 9.36 0.04 8C0.04 6.64 0.36 5.42 1 4.34C1.64 3.24667 2.52667 2.39333 3.66 1.78C4.79333 1.15333 6.06 0.84 7.46 0.84C8.55333 0.84 9.55333 1.02667 10.46 1.4C11.3667 1.76 12.14 2.3 12.78 3.02L11.48 4.28C10.4267 3.17333 9.11333 2.62 7.54 2.62C6.5 2.62 5.56 2.85333 4.72 3.32C3.88 3.78667 3.22 4.43333 2.74 5.26C2.27333 6.07333 2.04 6.98667 2.04 8C2.04 9.01333 2.27333 9.93333 2.74 10.76C3.22 11.5733 3.88 12.2133 4.72 12.68C5.56 13.1467 6.5 13.38 7.54 13.38C9.1 13.38 10.4133 12.82 11.48 11.7L12.78 12.96C12.14 13.68 11.36 14.2267 10.44 14.6C9.53333 14.9733 8.53333 15.16 7.44 15.16ZM25.0355 4.4V15H23.1155V6.08H17.1355V15H15.2155V4.4H25.0355ZM38.3306 9.76C38.3306 9.90667 38.3173 10.1 38.2906 10.34H29.6906C29.8106 11.2733 30.2173 12.0267 30.9106 12.6C31.6173 13.16 32.4906 13.44 33.5306 13.44C34.7973 13.44 35.8173 13.0133 36.5906 12.16L37.6506 13.4C37.1706 13.96 36.5706 14.3867 35.8506 14.68C35.144 14.9733 34.3506 15.12 33.4706 15.12C32.3506 15.12 31.3573 14.8933 30.4906 14.44C29.624 13.9733 28.9506 13.3267 28.4706 12.5C28.004 11.6733 27.7706 10.74 27.7706 9.7C27.7706 8.67333 27.9973 7.74667 28.4506 6.92C28.9173 6.09333 29.5506 5.45333 30.3506 5C31.164 4.53333 32.0773 4.3 33.0906 4.3C34.104 4.3 35.004 4.53333 35.7906 5C36.5906 5.45333 37.2106 6.09333 37.6506 6.92C38.104 7.74667 38.3306 8.69333 38.3306 9.76ZM33.0906 5.92C32.1706 5.92 31.3973 6.2 30.7706 6.76C30.1573 7.32 29.7973 8.05333 29.6906 8.96H36.4906C36.384 8.06667 36.0173 7.34 35.3906 6.78C34.7773 6.20667 34.0106 5.92 33.0906 5.92ZM52.6292 13.32V17.54H50.8092V15H41.3092V4.4H43.2292V13.32H49.0292V4.4H50.9492V13.32H52.6292ZM55.1178 4.4H57.0378V12.12L63.5378 4.4H65.2778V15H63.3578V7.28L56.8778 15H55.1178V4.4ZM72.7845 4.3C74.2512 4.3 75.3712 4.66 76.1445 5.38C76.9312 6.1 77.3245 7.17333 77.3245 8.6V15H75.5045V13.6C75.1845 14.0933 74.7245 14.4733 74.1245 14.74C73.5379 14.9933 72.8379 15.12 72.0245 15.12C70.8379 15.12 69.8845 14.8333 69.1645 14.26C68.4579 13.6867 68.1045 12.9333 68.1045 12C68.1045 11.0667 68.4445 10.32 69.1245 9.76C69.8045 9.18667 70.8845 8.9 72.3645 8.9H75.4045V8.52C75.4045 7.69333 75.1645 7.06 74.6845 6.62C74.2045 6.18 73.4979 5.96 72.5645 5.96C71.9379 5.96 71.3245 6.06667 70.7245 6.28C70.1245 6.48 69.6179 6.75333 69.2045 7.1L68.4045 5.66C68.9512 5.22 69.6045 4.88667 70.3645 4.66C71.1245 4.42 71.9312 4.3 72.7845 4.3ZM72.3445 13.64C73.0779 13.64 73.7112 13.48 74.2445 13.16C74.7779 12.8267 75.1645 12.36 75.4045 11.76V10.28H72.4445C70.8179 10.28 70.0045 10.8267 70.0045 11.92C70.0045 12.4533 70.2112 12.8733 70.6245 13.18C71.0379 13.4867 71.6112 13.64 72.3445 13.64ZM89.8819 4.4V15H87.9619V6.08H83.4019L83.2819 8.44C83.2152 9.86667 83.0885 11.06 82.9019 12.02C82.7152 12.9667 82.4085 13.7267 81.9819 14.3C81.5552 14.8733 80.9619 15.16 80.2019 15.16C79.8552 15.16 79.4619 15.1 79.0219 14.98L79.1419 13.36C79.3152 13.4 79.4752 13.42 79.6219 13.42C80.1552 13.42 80.5552 13.1867 80.8219 12.72C81.0885 12.2533 81.2619 11.7 81.3419 11.06C81.4219 10.42 81.4952 9.50667 81.5619 8.32L81.7419 4.4H89.8819ZM93.5944 4.4H95.5144V12.12L102.014 4.4H103.754V15H101.834V7.28L95.3544 15H93.5944V4.4ZM113.045 9.48C113.752 9.66667 114.299 9.96667 114.685 10.38C115.072 10.7933 115.265 11.3067 115.265 11.92C115.265 12.5467 115.052 13.1067 114.625 13.6C114.199 14.08 113.605 14.46 112.845 14.74C112.099 15.0067 111.259 15.14 110.325 15.14C109.539 15.14 108.765 15.04 108.005 14.84C107.259 14.6267 106.592 14.3267 106.005 13.94L106.585 12.48C107.092 12.8 107.672 13.0533 108.325 13.24C108.979 13.4133 109.639 13.5 110.305 13.5C111.212 13.5 111.932 13.3467 112.465 13.04C113.012 12.72 113.285 12.2933 113.285 11.76C113.285 11.2667 113.065 10.8867 112.625 10.62C112.199 10.3533 111.592 10.22 110.805 10.22H108.865V8.84H110.665C111.385 8.84 111.952 8.71333 112.365 8.46C112.779 8.20667 112.985 7.86 112.985 7.42C112.985 6.94 112.739 6.56667 112.245 6.3C111.765 6.03333 111.112 5.9 110.285 5.9C109.232 5.9 108.119 6.17333 106.945 6.72L106.425 5.24C107.719 4.58667 109.072 4.26 110.485 4.26C111.339 4.26 112.105 4.38 112.785 4.62C113.465 4.86 113.999 5.2 114.385 5.64C114.772 6.08 114.965 6.58 114.965 7.14C114.965 7.66 114.792 8.12667 114.445 8.54C114.099 8.95333 113.632 9.26667 113.045 9.48ZM118.184 4.4H120.104V12.12L126.604 4.4H128.344V15H126.424V7.28L119.944 15H118.184V4.4ZM137.691 4.3C138.718 4.3 139.638 4.52667 140.451 4.98C141.264 5.43333 141.898 6.06667 142.351 6.88C142.818 7.69333 143.051 8.63333 143.051 9.7C143.051 10.7667 142.818 11.7133 142.351 12.54C141.898 13.3533 141.264 13.9867 140.451 14.44C139.638 14.8933 138.718 15.12 137.691 15.12C136.931 15.12 136.231 14.9733 135.591 14.68C134.964 14.3867 134.431 13.96 133.991 13.4V18.88H132.071V4.4H133.911V6.08C134.338 5.49333 134.878 5.05333 135.531 4.76C136.184 4.45333 136.904 4.3 137.691 4.3ZM137.531 13.44C138.211 13.44 138.818 13.2867 139.351 12.98C139.898 12.66 140.324 12.22 140.631 11.66C140.951 11.0867 141.111 10.4333 141.111 9.7C141.111 8.96667 140.951 8.32 140.631 7.76C140.324 7.18667 139.898 6.74667 139.351 6.44C138.818 6.13333 138.211 5.98 137.531 5.98C136.864 5.98 136.258 6.14 135.711 6.46C135.178 6.76667 134.751 7.2 134.431 7.76C134.124 8.32 133.971 8.96667 133.971 9.7C133.971 10.4333 134.124 11.0867 134.431 11.66C134.738 12.22 135.164 12.66 135.711 12.98C136.258 13.2867 136.864 13.44 137.531 13.44ZM155.008 4.4L149.868 16.06C149.414 17.14 148.881 17.9 148.268 18.34C147.668 18.78 146.941 19 146.088 19C145.568 19 145.061 18.9133 144.568 18.74C144.088 18.58 143.688 18.34 143.367 18.02L144.188 16.58C144.734 17.1 145.368 17.36 146.088 17.36C146.554 17.36 146.941 17.2333 147.248 16.98C147.568 16.74 147.854 16.32 148.108 15.72L148.448 14.98L143.768 4.4H145.768L149.468 12.88L153.128 4.4H155.008ZM166.26 9.76C166.26 9.90667 166.247 10.1 166.22 10.34H157.62C157.74 11.2733 158.147 12.0267 158.84 12.6C159.547 13.16 160.42 13.44 161.46 13.44C162.727 13.44 163.747 13.0133 164.52 12.16L165.58 13.4C165.1 13.96 164.5 14.3867 163.78 14.68C163.074 14.9733 162.28 15.12 161.4 15.12C160.28 15.12 159.287 14.8933 158.42 14.44C157.554 13.9733 156.88 13.3267 156.4 12.5C155.934 11.6733 155.7 10.74 155.7 9.7C155.7 8.67333 155.927 7.74667 156.38 6.92C156.847 6.09333 157.48 5.45333 158.28 5C159.094 4.53333 160.007 4.3 161.02 4.3C162.034 4.3 162.934 4.53333 163.72 5C164.52 5.45333 165.14 6.09333 165.58 6.92C166.034 7.74667 166.26 8.69333 166.26 9.76ZM161.02 5.92C160.1 5.92 159.327 6.2 158.7 6.76C158.087 7.32 157.727 8.05333 157.62 8.96H164.42C164.314 8.06667 163.947 7.34 163.32 6.78C162.707 6.20667 161.94 5.92 161.02 5.92ZM181.459 4.4V15H179.719V7.26L175.759 13.8H174.919L170.999 7.24V15H169.239V4.4H171.219L175.379 11.56L179.659 4.4H181.459ZM189.816 15.12C188.736 15.12 187.769 14.8867 186.916 14.42C186.076 13.9533 185.416 13.3133 184.936 12.5C184.456 11.6733 184.216 10.74 184.216 9.7C184.216 8.66 184.456 7.73333 184.936 6.92C185.416 6.09333 186.076 5.45333 186.916 5C187.769 4.53333 188.736 4.3 189.816 4.3C190.776 4.3 191.629 4.49333 192.376 4.88C193.136 5.26667 193.723 5.82667 194.136 6.56L192.676 7.5C192.343 6.99333 191.929 6.61333 191.436 6.36C190.943 6.10667 190.396 5.98 189.796 5.98C189.103 5.98 188.476 6.13333 187.916 6.44C187.369 6.74667 186.936 7.18667 186.616 7.76C186.309 8.32 186.156 8.96667 186.156 9.7C186.156 10.4467 186.309 11.1067 186.616 11.68C186.936 12.24 187.369 12.6733 187.916 12.98C188.476 13.2867 189.103 13.44 189.796 13.44C190.396 13.44 190.943 13.3133 191.436 13.06C191.929 12.8067 192.343 12.4267 192.676 11.92L194.136 12.84C193.723 13.5733 193.136 14.14 192.376 14.54C191.629 14.9267 190.776 15.12 189.816 15.12ZM204.79 4.4V15H203.07V11.64H199.99H199.77L197.45 15H195.39L197.97 11.38C197.17 11.14 196.556 10.7467 196.13 10.2C195.703 9.64 195.49 8.94667 195.49 8.12C195.49 6.90667 195.903 5.98667 196.73 5.36C197.556 4.72 198.696 4.4 200.15 4.4H204.79ZM197.45 8.18C197.45 8.88667 197.67 9.41333 198.11 9.76C198.563 10.0933 199.236 10.26 200.13 10.26H203.07V6.08H200.21C198.37 6.08 197.45 6.78 197.45 8.18ZM0.5 29.24H3.6V33.44H8.28V29.24H11.4V40H8.28V35.98H3.6V40H0.5V29.24ZM18.5667 29.08C20.2334 29.08 21.5134 29.48 22.4067 30.28C23.3001 31.0667 23.7467 32.26 23.7467 33.86V40H20.8267V38.66C20.2401 39.66 19.1467 40.16 17.5467 40.16C16.7201 40.16 16.0001 40.02 15.3867 39.74C14.7867 39.46 14.3267 39.0733 14.0067 38.58C13.6867 38.0867 13.5267 37.5267 13.5267 36.9C13.5267 35.9 13.9001 35.1133 14.6467 34.54C15.4067 33.9667 16.5734 33.68 18.1467 33.68H20.6267C20.6267 33 20.4201 32.48 20.0067 32.12C19.5934 31.7467 18.9734 31.56 18.1467 31.56C17.5734 31.56 17.0067 31.6533 16.4467 31.84C15.9001 32.0133 15.4334 32.2533 15.0467 32.56L13.9267 30.38C14.5134 29.9667 15.2134 29.6467 16.0267 29.42C16.8534 29.1933 17.7001 29.08 18.5667 29.08ZM18.3267 38.06C18.8601 38.06 19.3334 37.94 19.7467 37.7C20.1601 37.4467 20.4534 37.08 20.6267 36.6V35.5H18.4867C17.2067 35.5 16.5667 35.92 16.5667 36.76C16.5667 37.16 16.7201 37.48 17.0267 37.72C17.3467 37.9467 17.7801 38.06 18.3267 38.06ZM44.2211 37.06H41.9411V40H38.7811V37.06H31.2411V34.88L37.8411 26H41.2411L35.1211 34.42H38.8811V31.8H41.9411V34.42H44.2211V37.06ZM56.6942 40.16C55.5476 40.16 54.5142 39.9267 53.5942 39.46C52.6876 38.98 51.9742 38.32 51.4542 37.48C50.9476 36.64 50.6942 35.6867 50.6942 34.62C50.6942 33.5533 50.9476 32.6 51.4542 31.76C51.9742 30.92 52.6876 30.2667 53.5942 29.8C54.5142 29.32 55.5476 29.08 56.6942 29.08C57.8276 29.08 58.8142 29.32 59.6542 29.8C60.5076 30.2667 61.1276 30.94 61.5142 31.82L59.0942 33.12C58.5342 32.1333 57.7276 31.64 56.6742 31.64C55.8609 31.64 55.1876 31.9067 54.6542 32.44C54.1209 32.9733 53.8542 33.7 53.8542 34.62C53.8542 35.54 54.1209 36.2667 54.6542 36.8C55.1876 37.3333 55.8609 37.6 56.6742 37.6C57.7409 37.6 58.5476 37.1067 59.0942 36.12L61.5142 37.44C61.1276 38.2933 60.5076 38.96 59.6542 39.44C58.8142 39.92 57.8276 40.16 56.6942 40.16ZM72.4111 31.8H68.7711V40H65.6711V31.8H62.0311V29.24H72.4111V31.8ZM80.4142 29.08C81.4142 29.08 82.3209 29.3133 83.1342 29.78C83.9609 30.2333 84.6076 30.88 85.0742 31.72C85.5409 32.5467 85.7742 33.5133 85.7742 34.62C85.7742 35.7267 85.5409 36.7 85.0742 37.54C84.6076 38.3667 83.9609 39.0133 83.1342 39.48C82.3209 39.9333 81.4142 40.16 80.4142 40.16C79.0409 40.16 77.9609 39.7267 77.1742 38.86V43.88H74.0542V29.24H77.0342V30.48C77.8076 29.5467 78.9342 29.08 80.4142 29.08ZM79.8742 37.6C80.6742 37.6 81.3276 37.3333 81.8342 36.8C82.3542 36.2533 82.6142 35.5267 82.6142 34.62C82.6142 33.7133 82.3542 32.9933 81.8342 32.46C81.3276 31.9133 80.6742 31.64 79.8742 31.64C79.0742 31.64 78.4142 31.9133 77.8942 32.46C77.3876 32.9933 77.1342 33.7133 77.1342 34.62C77.1342 35.5267 77.3876 36.2533 77.8942 36.8C78.4142 37.3333 79.0742 37.6 79.8742 37.6ZM91.9652 29.08C93.6318 29.08 94.9118 29.48 95.8052 30.28C96.6985 31.0667 97.1452 32.26 97.1452 33.86V40H94.2252V38.66C93.6385 39.66 92.5452 40.16 90.9452 40.16C90.1185 40.16 89.3985 40.02 88.7852 39.74C88.1852 39.46 87.7252 39.0733 87.4052 38.58C87.0852 38.0867 86.9252 37.5267 86.9252 36.9C86.9252 35.9 87.2985 35.1133 88.0452 34.54C88.8052 33.9667 89.9718 33.68 91.5452 33.68H94.0252C94.0252 33 93.8185 32.48 93.4052 32.12C92.9918 31.7467 92.3718 31.56 91.5452 31.56C90.9718 31.56 90.4052 31.6533 89.8452 31.84C89.2985 32.0133 88.8318 32.2533 88.4452 32.56L87.3252 30.38C87.9118 29.9667 88.6118 29.6467 89.4252 29.42C90.2518 29.1933 91.0985 29.08 91.9652 29.08ZM91.7252 38.06C92.2585 38.06 92.7318 37.94 93.1452 37.7C93.5585 37.4467 93.8518 37.08 94.0252 36.6V35.5H91.8852C90.6052 35.5 89.9652 35.92 89.9652 36.76C89.9652 37.16 90.1185 37.48 90.4252 37.72C90.7452 37.9467 91.1785 38.06 91.7252 38.06ZM99.8555 29.24H102.955V33.44H107.635V29.24H110.755V40H107.635V35.98H102.955V40H99.8555V29.24ZM117.922 29.08C119.589 29.08 120.869 29.48 121.762 30.28C122.656 31.0667 123.102 32.26 123.102 33.86V40H120.182V38.66C119.596 39.66 118.502 40.16 116.902 40.16C116.076 40.16 115.356 40.02 114.742 39.74C114.142 39.46 113.682 39.0733 113.362 38.58C113.042 38.0867 112.882 37.5267 112.882 36.9C112.882 35.9 113.256 35.1133 114.002 34.54C114.762 33.9667 115.929 33.68 117.502 33.68H119.982C119.982 33 119.776 32.48 119.362 32.12C118.949 31.7467 118.329 31.56 117.502 31.56C116.929 31.56 116.362 31.6533 115.802 31.84C115.256 32.0133 114.789 32.2533 114.402 32.56L113.282 30.38C113.869 29.9667 114.569 29.6467 115.382 29.42C116.209 29.1933 117.056 29.08 117.922 29.08ZM117.682 38.06C118.216 38.06 118.689 37.94 119.102 37.7C119.516 37.4467 119.809 37.08 119.982 36.6V35.5H117.842C116.562 35.5 115.922 35.92 115.922 36.76C115.922 37.16 116.076 37.48 116.382 37.72C116.702 37.9467 117.136 38.06 117.682 38.06ZM132.573 40L130.213 36.7L127.773 40H124.373L128.513 34.58L124.513 29.24H128.013L130.293 32.38L132.633 29.24H135.953L131.953 34.5L136.113 40H132.573Z" fill="#DD4053"/>
</svg>
