<svg width="647" height="85" viewBox="0 0 647 85" fill="none" xmlns="http://www.w3.org/2000/svg">
<path d="M56.0917 0.999998V29H52.1317V17.92C49.1717 19.0667 46.4384 19.64 43.9317 19.64C40.5184 19.64 37.8651 18.8133 35.9717 17.16C34.1051 15.5067 33.1717 13.1467 33.1717 10.08V0.999998H37.0917V9.64C37.0917 11.72 37.7184 13.32 38.9717 14.44C40.2517 15.56 42.0517 16.12 44.3717 16.12C46.9584 16.12 49.5451 15.5333 52.1317 14.36V0.999998H56.0917ZM84.0648 4.48H74.4648V29H70.5448V4.48H60.9848V0.999998H84.0648V4.48ZM101.136 29.32C98.3091 29.32 95.7624 28.7067 93.4958 27.48C91.2291 26.2267 89.4424 24.5067 88.1358 22.32C86.8558 20.1333 86.2158 17.6933 86.2158 15C86.2158 12.3067 86.8558 9.86667 88.1358 7.68C89.4424 5.49333 91.2291 3.78667 93.4958 2.56C95.7624 1.30667 98.3091 0.68 101.136 0.68C103.936 0.68 106.469 1.30667 108.736 2.56C111.002 3.78667 112.776 5.49333 114.056 7.68C115.336 9.84 115.976 12.28 115.976 15C115.976 17.72 115.336 20.1733 114.056 22.36C112.776 24.52 111.002 26.2267 108.736 27.48C106.469 28.7067 103.936 29.32 101.136 29.32ZM101.136 25.76C103.189 25.76 105.029 25.2933 106.656 24.36C108.309 23.4267 109.602 22.1467 110.536 20.52C111.496 18.8667 111.976 17.0267 111.976 15C111.976 12.9733 111.496 11.1467 110.536 9.52C109.602 7.86667 108.309 6.57333 106.656 5.64C105.029 4.70667 103.189 4.24 101.136 4.24C99.0824 4.24 97.2158 4.70667 95.5358 5.64C93.8824 6.57333 92.5758 7.86667 91.6158 9.52C90.6824 11.1467 90.2158 12.9733 90.2158 15C90.2158 17.0267 90.6824 18.8667 91.6158 20.52C92.5758 22.1467 93.8824 23.4267 95.5358 24.36C97.2158 25.2933 99.0824 25.76 101.136 25.76ZM152.424 4.48H142.824V29H138.904V4.48H129.344V0.999998H152.424V4.48ZM174.08 22H159.2L156.12 29H152L164.68 0.999998H168.64L181.36 29H177.16L174.08 22ZM172.68 18.8L166.64 5.08L160.6 18.8H172.68ZM195.952 16.68H190.112V29H186.192V0.999998H190.112V13.16H196.032L204.832 0.999998H209.112L199.112 14.56L209.592 29H205.032L195.952 16.68ZM226.214 29.32C223.387 29.32 220.841 28.7067 218.574 27.48C216.307 26.2267 214.521 24.5067 213.214 22.32C211.934 20.1333 211.294 17.6933 211.294 15C211.294 12.3067 211.934 9.86667 213.214 7.68C214.521 5.49333 216.307 3.78667 218.574 2.56C220.841 1.30667 223.387 0.68 226.214 0.68C229.014 0.68 231.547 1.30667 233.814 2.56C236.081 3.78667 237.854 5.49333 239.134 7.68C240.414 9.84 241.054 12.28 241.054 15C241.054 17.72 240.414 20.1733 239.134 22.36C237.854 24.52 236.081 26.2267 233.814 27.48C231.547 28.7067 229.014 29.32 226.214 29.32ZM226.214 25.76C228.267 25.76 230.107 25.2933 231.734 24.36C233.387 23.4267 234.681 22.1467 235.614 20.52C236.574 18.8667 237.054 17.0267 237.054 15C237.054 12.9733 236.574 11.1467 235.614 9.52C234.681 7.86667 233.387 6.57333 231.734 5.64C230.107 4.70667 228.267 4.24 226.214 4.24C224.161 4.24 222.294 4.70667 220.614 5.64C218.961 6.57333 217.654 7.86667 216.694 9.52C215.761 11.1467 215.294 12.9733 215.294 15C215.294 17.0267 215.761 18.8667 216.694 20.52C217.654 22.1467 218.961 23.4267 220.614 24.36C222.294 25.2933 224.161 25.76 226.214 25.76ZM267.84 25.52V29H247.52V0.999998H267.28V4.48H251.52V13.08H265.56V16.48H251.52V25.52H267.84ZM308.984 0.999998V29H305.064V4.48H288.824V29H284.864V0.999998H308.984ZM340.635 0.999998L328.195 24.08C327.209 25.92 326.049 27.2933 324.715 28.2C323.382 29.1067 321.929 29.56 320.355 29.56C319.129 29.56 317.875 29.28 316.595 28.72L317.635 25.52C318.622 25.8667 319.502 26.04 320.275 26.04C322.035 26.04 323.489 25.1067 324.635 23.24L325.275 22.24L313.995 0.999998H318.275L327.355 18.76L336.675 0.999998H340.635ZM364.299 4.48H354.699V29H350.779V4.48H341.219V0.999998H364.299V4.48ZM389.481 25.52V29H369.161V0.999998H388.921V4.48H373.161V13.08H387.201V16.48H373.161V25.52H389.481ZM430.842 0.999998V29H395.762V0.999998H399.722V25.52H411.362V0.999998H415.282V25.52H426.922V0.999998H430.842ZM459.871 25.52V29H439.551V0.999998H459.311V4.48H443.551V13.08H457.591V16.48H443.551V25.52H459.871ZM478.556 29.32C475.756 29.32 473.222 28.7067 470.956 27.48C468.716 26.2267 466.956 24.52 465.676 22.36C464.396 20.1733 463.756 17.72 463.756 15C463.756 12.28 464.396 9.84 465.676 7.68C466.956 5.49333 468.729 3.78667 470.996 2.56C473.262 1.30667 475.796 0.68 478.596 0.68C480.782 0.68 482.782 1.05333 484.596 1.8C486.409 2.52 487.956 3.6 489.236 5.04L486.636 7.56C484.529 5.34667 481.902 4.24 478.756 4.24C476.676 4.24 474.796 4.70667 473.116 5.64C471.436 6.57333 470.116 7.86667 469.156 9.52C468.222 11.1467 467.756 12.9733 467.756 15C467.756 17.0267 468.222 18.8667 469.156 20.52C470.116 22.1467 471.436 23.4267 473.116 24.36C474.796 25.2933 476.676 25.76 478.756 25.76C481.876 25.76 484.502 24.64 486.636 22.4L489.236 24.92C487.956 26.36 486.396 27.4533 484.556 28.2C482.742 28.9467 480.742 29.32 478.556 29.32ZM513.674 4.48H504.074V29H500.154V4.48H490.594V0.999998H513.674V4.48ZM535.976 14.48C537.869 14.9333 539.296 15.7467 540.256 16.92C541.242 18.0667 541.736 19.5467 541.736 21.36C541.736 23.7867 540.842 25.6667 539.056 27C537.296 28.3333 534.722 29 531.336 29H518.536V0.999998H530.576C533.642 0.999998 536.029 1.62666 537.736 2.88C539.469 4.10666 540.336 5.88 540.336 8.2C540.336 9.72 539.949 11.0133 539.176 12.08C538.429 13.1467 537.362 13.9467 535.976 14.48ZM522.496 13.32H530.296C532.242 13.32 533.722 12.9333 534.736 12.16C535.776 11.3867 536.296 10.2533 536.296 8.76C536.296 7.26667 535.776 6.13333 534.736 5.36C533.696 4.56 532.216 4.16 530.296 4.16H522.496V13.32ZM531.256 25.84C535.549 25.84 537.696 24.24 537.696 21.04C537.696 19.44 537.149 18.2667 536.056 17.52C534.989 16.7467 533.389 16.36 531.256 16.36H522.496V25.84H531.256ZM548.419 0.999998H552.379V22.6L568.939 0.999998H572.619V29H568.699V7.44L552.099 29H548.419V0.999998ZM601.868 0.999998V29H597.948V20.84H590.228C589.748 20.84 589.388 20.8267 589.148 20.8L583.548 29H579.308L585.508 20.12C583.508 19.4533 581.975 18.3467 580.908 16.8C579.842 15.2267 579.308 13.32 579.308 11.08C579.308 7.90667 580.322 5.44 582.348 3.68C584.402 1.89333 587.162 0.999998 590.628 0.999998H601.868ZM583.348 11.04C583.348 13.12 583.948 14.72 585.148 15.84C586.375 16.9333 588.175 17.48 590.548 17.48H597.948V4.48H590.788C588.388 4.48 586.548 5.04 585.268 6.16C583.988 7.28 583.348 8.90667 583.348 11.04ZM15.4894 84.32C12.6894 84.32 10.156 83.7067 7.88938 82.48C5.64938 81.2267 3.88938 79.52 2.60938 77.36C1.32938 75.1733 0.689375 72.72 0.689375 70C0.689375 67.28 1.32938 64.84 2.60938 62.68C3.88938 60.4933 5.66271 58.7867 7.92938 57.56C10.196 56.3067 12.7294 55.68 15.5294 55.68C17.716 55.68 19.716 56.0533 21.5294 56.8C23.3427 57.52 24.8894 58.6 26.1694 60.04L23.5694 62.56C21.4627 60.3467 18.836 59.24 15.6894 59.24C13.6094 59.24 11.7294 59.7067 10.0494 60.64C8.36938 61.5733 7.04938 62.8667 6.08938 64.52C5.15604 66.1467 4.68938 67.9733 4.68938 70C4.68938 72.0267 5.15604 73.8667 6.08938 75.52C7.04938 77.1467 8.36938 78.4267 10.0494 79.36C11.7294 80.2933 13.6094 80.76 15.6894 80.76C18.8094 80.76 21.436 79.64 23.5694 77.4L26.1694 79.92C24.8894 81.36 23.3294 82.4533 21.4894 83.2C19.676 83.9467 17.676 84.32 15.4894 84.32ZM66.5825 56L54.3025 84H50.3425L38.0225 56H42.3425L52.4225 79L62.5825 56H66.5825ZM87.0947 77H72.2147L69.1347 84H65.0147L77.6947 56H81.6547L94.3747 84H90.1747L87.0947 77ZM85.6947 73.8L79.6547 60.08L73.6147 73.8H85.6947ZM98.5516 56H102.552V80.52H117.712V84H98.5516V56ZM140.259 77H125.379L122.299 84H118.179L130.859 56H134.819L147.539 84H143.339L140.259 77ZM138.859 73.8L132.819 60.08L126.779 73.8H138.859ZM175.796 56V84H172.516L155.716 63.12V84H151.716V56H154.996L171.796 76.88V56H175.796ZM189.737 59.48H180.137V56H203.297V59.48H193.697V84H189.737V59.48ZM224.087 77H209.207L206.127 84H202.007L214.687 56H218.647L231.367 84H227.167L224.087 77ZM222.687 73.8L216.647 60.08L210.607 73.8H222.687ZM251.846 59.48H242.246V56H265.406V59.48H255.806V84H251.846V59.48ZM288.483 84L282.443 75.4C281.696 75.4533 281.109 75.48 280.683 75.48H273.763V84H269.763V56H280.683C284.309 56 287.163 56.8667 289.243 58.6C291.323 60.3333 292.363 62.72 292.363 65.76C292.363 67.92 291.829 69.76 290.763 71.28C289.696 72.8 288.176 73.9067 286.203 74.6L292.843 84H288.483ZM280.563 72.08C283.096 72.08 285.029 71.5333 286.363 70.44C287.696 69.3467 288.363 67.7867 288.363 65.76C288.363 63.7333 287.696 62.1867 286.363 61.12C285.029 60.0267 283.096 59.48 280.563 59.48H273.763V72.08H280.563ZM316.665 77H301.785L298.705 84H294.585L307.265 56H311.225L323.945 84H319.745L316.665 77ZM315.265 73.8L309.225 60.08L303.185 73.8H315.265ZM350.958 56L338.678 84H334.718L322.397 56H326.718L336.798 79L346.958 56H350.958ZM374.848 80.52V84H354.528V56H374.288V59.48H358.528V68.08H372.568V71.48H358.528V80.52H374.848ZM381.325 56H385.325V80.52H400.485V84H381.325V56ZM428.337 84.32C425.537 84.32 423.004 83.7067 420.737 82.48C418.497 81.2267 416.737 79.52 415.457 77.36C414.177 75.1733 413.537 72.72 413.537 70C413.537 67.28 414.177 64.84 415.457 62.68C416.737 60.4933 418.511 58.7867 420.777 57.56C423.044 56.3067 425.577 55.68 428.377 55.68C430.564 55.68 432.564 56.0533 434.377 56.8C436.191 57.52 437.737 58.6 439.017 60.04L436.417 62.56C434.311 60.3467 431.684 59.24 428.537 59.24C426.457 59.24 424.577 59.7067 422.897 60.64C421.217 61.5733 419.897 62.8667 418.937 64.52C418.004 66.1467 417.537 67.9733 417.537 70C417.537 72.0267 418.004 73.8667 418.937 75.52C419.897 77.1467 421.217 78.4267 422.897 79.36C424.577 80.2933 426.457 80.76 428.537 80.76C431.657 80.76 434.284 79.64 436.417 77.4L439.017 79.92C437.737 81.36 436.177 82.4533 434.337 83.2C432.524 83.9467 430.524 84.32 428.337 84.32ZM456.778 84.32C453.951 84.32 451.404 83.7067 449.138 82.48C446.871 81.2267 445.084 79.5067 443.778 77.32C442.498 75.1333 441.858 72.6933 441.858 70C441.858 67.3067 442.498 64.8667 443.778 62.68C445.084 60.4933 446.871 58.7867 449.138 57.56C451.404 56.3067 453.951 55.68 456.778 55.68C459.578 55.68 462.111 56.3067 464.378 57.56C466.644 58.7867 468.418 60.4933 469.698 62.68C470.978 64.84 471.618 67.28 471.618 70C471.618 72.72 470.978 75.1733 469.698 77.36C468.418 79.52 466.644 81.2267 464.378 82.48C462.111 83.7067 459.578 84.32 456.778 84.32ZM456.778 80.76C458.831 80.76 460.671 80.2933 462.298 79.36C463.951 78.4267 465.244 77.1467 466.178 75.52C467.138 73.8667 467.618 72.0267 467.618 70C467.618 67.9733 467.138 66.1467 466.178 64.52C465.244 62.8667 463.951 61.5733 462.298 60.64C460.671 59.7067 458.831 59.24 456.778 59.24C454.724 59.24 452.858 59.7067 451.178 60.64C449.524 61.5733 448.218 62.8667 447.258 64.52C446.324 66.1467 445.858 67.9733 445.858 70C445.858 72.0267 446.324 73.8667 447.258 75.52C448.218 77.1467 449.524 78.4267 451.178 79.36C452.858 80.2933 454.724 80.76 456.778 80.76ZM503.691 84L503.651 63.6L493.531 80.6H491.691L481.571 63.72V84H477.731V56H481.011L492.691 75.68L504.211 56H507.491L507.531 84H503.691ZM526.854 56C530.481 56 533.334 56.8667 535.414 58.6C537.494 60.3333 538.534 62.72 538.534 65.76C538.534 68.8 537.494 71.1867 535.414 72.92C533.334 74.6533 530.481 75.52 526.854 75.52H519.934V84H515.934V56H526.854ZM526.734 72.04C529.268 72.04 531.201 71.5067 532.534 70.44C533.868 69.3467 534.534 67.7867 534.534 65.76C534.534 63.7333 533.868 62.1867 532.534 61.12C531.201 60.0267 529.268 59.48 526.734 59.48H519.934V72.04H526.734ZM560.845 77H545.965L542.885 84H538.765L551.445 56H555.405L568.125 84H563.925L560.845 77ZM559.445 73.8L553.405 60.08L547.365 73.8H559.445ZM596.382 56V84H593.102L576.302 63.12V84H572.302V56H575.582L592.382 76.88V56H596.382ZM615.483 74.32V84H611.523V74.24L600.402 56H604.683L613.643 70.76L622.643 56H626.603L615.483 74.32ZM635.581 75.16C635.581 74.0933 635.754 73.16 636.101 72.36C636.474 71.5333 636.914 70.84 637.421 70.28C637.954 69.72 638.648 69.0533 639.501 68.28C640.568 67.3467 641.354 66.5467 641.861 65.88C642.368 65.1867 642.621 64.36 642.621 63.4C642.621 62.0933 642.114 61.0533 641.101 60.28C640.088 59.48 638.688 59.08 636.901 59.08C633.781 59.08 631.394 60.1333 629.741 62.24L626.821 60.16C627.941 58.72 629.368 57.6133 631.101 56.84C632.861 56.0667 634.888 55.68 637.181 55.68C640.088 55.68 642.394 56.32 644.101 57.6C645.808 58.8533 646.661 60.5867 646.661 62.8C646.661 63.8933 646.474 64.8667 646.101 65.72C645.754 66.5467 645.328 67.24 644.821 67.8C644.314 68.36 643.634 69.0267 642.781 69.8C641.688 70.7867 640.874 71.6533 640.341 72.4C639.834 73.1467 639.581 74.0667 639.581 75.16H635.581ZM637.621 84.24C636.874 84.24 636.248 84 635.741 83.52C635.261 83.0133 635.021 82.4 635.021 81.68C635.021 80.96 635.261 80.36 635.741 79.88C636.248 79.3733 636.874 79.12 637.621 79.12C638.368 79.12 638.981 79.3733 639.461 79.88C639.941 80.36 640.181 80.96 640.181 81.68C640.181 82.4 639.928 83.0133 639.421 83.52C638.941 84 638.341 84.24 637.621 84.24Z" fill="white"/>
</svg>
